<svg id="svg" version="1.1" xmlns="http://www.w3.org/2000/svg" xmlns:xlink="http://www.w3.org/1999/xlink" width="400" height="388.1401617250674" viewBox="0, 0, 400,388.1401617250674"><g id="svgg"><path id="path0" d="M190.476 16.131 C 148.286 25.377,154.699 87.466,197.844 87.466 C 218.545 87.466,233.738 72.273,233.738 51.572 C 233.738 28.425,212.768 11.246,190.476 16.131 M158.964 95.491 C 158.407 95.730,157.505 95.932,156.959 95.941 C 154.267 95.985,150.279 99.122,148.716 102.426 C 148.389 103.118,144.721 113.830,140.566 126.231 C 136.411 138.632,132.776 149.306,132.487 149.951 C 130.662 154.034,129.996 159.112,130.878 162.222 C 131.503 164.426,134.247 167.835,135.396 167.835 C 135.645 167.835,135.849 167.957,135.849 168.106 C 135.849 168.613,137.810 169.232,145.732 171.226 C 150.081 172.321,154.028 173.325,154.504 173.457 L 155.369 173.698 155.223 268.610 L 155.076 363.522 156.082 365.678 C 158.590 371.052,161.591 372.632,169.541 372.763 C 177.325 372.890,180.802 371.028,183.002 365.552 L 183.817 363.522 184.043 324.169 C 184.167 302.525,184.291 274.668,184.318 262.264 L 184.367 239.712 196.945 239.712 L 209.524 239.712 209.528 246.092 C 209.540 264.224,210.281 301.141,210.670 302.910 C 212.133 309.579,217.288 312.683,225.804 312.024 C 232.464 311.509,235.741 309.759,237.857 305.587 C 239.376 302.592,239.394 301.951,238.905 266.667 L 238.441 233.064 239.346 231.087 L 240.252 229.111 240.431 202.302 L 240.611 175.494 251.170 206.494 C 262.081 238.528,262.301 239.134,263.457 240.375 C 263.839 240.785,264.151 241.288,264.151 241.494 C 264.151 241.700,264.320 241.869,264.526 241.869 C 264.732 241.869,265.322 242.259,265.837 242.736 C 267.000 243.815,270.317 244.681,272.709 244.530 C 274.541 244.415,281.122 242.334,281.342 241.800 C 281.408 241.640,281.664 241.509,281.911 241.509 C 283.280 241.509,286.262 237.731,286.950 235.124 C 287.865 231.654,288.087 232.368,265.791 166.881 C 254.024 132.320,244.213 103.477,243.988 102.785 C 242.999 99.749,240.402 97.418,236.478 96.045 L 234.142 95.228 197.060 95.143 C 168.774 95.079,159.737 95.161,158.964 95.491 " stroke="none" fill="#000000" fill-rule="evenodd"></path></g></svg>