<svg id="svg" xmlns="http://www.w3.org/2000/svg" xmlns:xlink="http://www.w3.org/1999/xlink" width="400" height="388.1401617250674" viewBox="0, 0, 400,388.1401617250674"><g id="svgg"><path id="path0" d="M190.476 17.209 C 148.286 26.455,154.699 88.545,197.844 88.545 C 218.545 88.545,233.738 73.352,233.738 52.650 C 233.738 29.504,212.768 12.324,190.476 17.209 M348.537 28.578 C 348.477 28.636,347.942 28.763,347.350 28.859 C 346.757 28.955,346.050 29.092,345.779 29.162 C 345.317 29.282,229.308 94.696,227.596 95.802 C 226.922 96.237,222.313 96.316,197.575 96.316 L 168.351 96.316 109.252 63.935 C 76.748 46.126,49.826 31.470,49.425 31.368 C 37.649 28.352,27.393 45.088,35.904 53.431 C 37.002 54.507,52.821 63.342,96.324 87.175 L 155.256 119.460 155.254 172.848 C 155.252 219.860,155.187 226.360,154.707 227.280 C 152.505 231.502,114.107 356.489,114.120 359.389 C 114.173 370.634,131.837 377.362,139.443 369.035 C 141.313 366.988,142.135 364.514,160.324 306.249 C 170.421 273.904,179.161 245.943,179.745 244.115 L 180.806 240.791 197.681 240.791 C 206.962 240.791,214.555 240.868,214.555 240.963 C 214.555 241.903,248.176 364.263,248.741 365.380 C 250.212 368.286,253.691 371.072,256.424 371.530 C 260.444 372.205,268.075 370.635,270.890 368.553 C 273.305 366.768,275.350 364.030,275.886 361.863 C 276.747 358.385,276.872 358.892,258.254 290.669 L 240.431 225.363 240.431 172.203 L 240.431 119.042 299.102 85.906 C 360.457 51.254,359.752 51.679,361.531 48.267 C 364.465 42.637,359.322 31.229,352.920 29.166 C 351.680 28.767,348.749 28.374,348.537 28.578 " stroke="none" fill="#000000" fill-rule="evenodd"></path></g></svg>