<svg id="svg" xmlns="http://www.w3.org/2000/svg" xmlns:xlink="http://www.w3.org/1999/xlink" width="400" height="388.1401617250674" viewBox="0, 0, 400,388.1401617250674"><g id="svgg"><path id="path0" d="M170.350 31.944 C 128.160 41.190,134.573 103.280,177.718 103.280 C 213.568 103.280,227.497 56.714,197.514 37.099 C 189.804 32.055,179.107 30.025,170.350 31.944 M170.171 111.062 C 160.260 113.142,153.703 119.755,151.654 129.739 C 150.717 134.304,150.591 159.462,151.482 164.119 C 151.932 166.469,152.021 171.466,152.022 194.261 L 152.022 221.586 148.844 224.035 C 147.097 225.382,145.390 226.953,145.050 227.527 C 144.711 228.102,144.272 228.571,144.073 228.571 C 143.875 228.571,143.813 228.733,143.935 228.931 C 144.057 229.128,143.977 229.290,143.756 229.290 C 143.535 229.290,143.454 229.452,143.576 229.650 C 143.698 229.847,143.617 230.009,143.396 230.009 C 143.175 230.009,143.094 230.171,143.217 230.368 C 143.339 230.566,143.294 230.728,143.118 230.728 C 142.942 230.728,142.784 230.930,142.769 231.177 C 142.753 231.424,142.598 232.111,142.424 232.704 C 142.079 233.877,142.088 235.132,142.457 237.407 L 142.695 238.876 134.690 239.322 C 122.062 240.026,118.978 241.279,116.206 246.831 C 115.644 247.956,115.078 248.958,114.948 249.057 C 114.205 249.624,106.664 336.364,107.113 339.175 C 107.928 344.279,111.914 348.088,117.374 348.982 C 126.019 350.397,132.077 348.429,134.251 343.499 C 134.625 342.652,135.057 341.868,135.212 341.757 C 135.657 341.437,136.008 337.869,139.108 302.066 C 140.717 283.486,142.089 268.225,142.156 268.154 C 142.355 267.943,175.042 265.848,175.228 266.034 C 175.321 266.127,178.169 274.919,181.556 285.572 C 184.944 296.225,187.812 305.022,187.929 305.121 C 188.046 305.220,188.375 305.753,188.660 306.306 C 189.195 307.345,190.580 308.845,192.679 310.662 C 194.041 311.840,270.988 350.191,272.781 350.585 C 280.666 352.317,288.432 346.000,289.863 336.690 C 289.995 335.832,290.139 334.906,290.183 334.632 C 290.356 333.558,289.659 330.483,288.923 329.070 C 287.045 325.465,287.439 325.687,249.101 306.658 C 229.409 296.884,213.252 288.843,213.197 288.788 C 213.142 288.733,210.452 280.378,207.220 270.220 L 201.344 251.752 202.289 250.017 C 204.207 246.498,204.781 245.280,204.634 245.042 C 204.551 244.908,205.050 243.509,205.743 241.934 C 206.436 240.358,207.080 238.467,207.174 237.732 C 207.268 236.997,207.447 236.075,207.572 235.682 C 207.696 235.290,207.851 234.621,207.915 234.196 C 207.980 233.771,208.287 232.629,208.599 231.659 C 209.040 230.284,209.169 228.144,209.187 221.955 L 209.210 214.016 220.812 205.084 C 227.193 200.172,232.690 195.684,233.029 195.111 C 233.367 194.539,233.806 194.070,234.004 194.070 C 234.202 194.070,234.264 193.908,234.142 193.711 C 234.020 193.513,234.101 193.351,234.322 193.351 C 234.543 193.351,234.624 193.190,234.501 192.992 C 234.379 192.794,234.460 192.633,234.681 192.633 C 234.902 192.633,234.983 192.471,234.861 192.273 C 234.739 192.075,234.837 191.914,235.079 191.914 C 235.321 191.914,235.417 191.812,235.293 191.687 C 235.168 191.562,235.229 191.155,235.428 190.783 C 235.628 190.410,235.855 189.259,235.933 188.224 C 236.012 187.190,236.183 185.696,236.314 184.906 C 236.679 182.704,236.507 181.047,235.711 179.115 C 235.476 178.544,235.293 177.996,235.303 177.898 C 235.314 177.799,229.442 169.955,222.255 160.467 L 209.188 143.217 209.176 139.742 C 209.168 137.467,208.987 135.915,208.651 135.249 C 208.369 134.690,207.720 132.453,207.209 130.279 C 204.636 119.334,198.557 113.144,188.320 111.043 C 183.654 110.085,174.781 110.094,170.171 111.062 " stroke="none" fill="#000000" fill-rule="evenodd"></path></g></svg>