<svg id="svg" xmlns="http://www.w3.org/2000/svg" xmlns:xlink="http://www.w3.org/1999/xlink" width="400" height="388.1401617250674" viewBox="0, 0, 400,388.1401617250674"><g id="svgg"><path id="path0" d="M264.510 8.943 C 222.320 18.189,228.733 80.279,271.878 80.279 C 292.579 80.279,307.772 65.086,307.772 44.385 C 307.772 21.238,286.802 4.058,264.510 8.943 M262.893 88.780 C 252.982 90.860,246.426 97.473,244.376 107.457 C 243.439 112.022,243.314 137.180,244.205 141.837 C 244.551 143.647,244.744 146.820,244.744 150.714 L 244.744 156.773 236.624 187.910 C 227.569 222.630,227.709 221.861,229.696 225.976 C 233.089 233.002,246.410 236.344,252.611 231.724 C 253.465 231.088,253.478 231.093,254.529 232.523 C 255.387 233.690,255.809 233.962,256.755 233.962 L 257.923 233.962 258.162 269.272 C 258.293 288.693,258.402 312.668,258.405 322.552 C 258.410 342.126,258.450 342.584,260.472 346.189 C 262.938 350.584,266.410 352.059,273.960 351.919 C 282.186 351.766,286.023 349.666,288.270 344.090 L 289.128 341.959 289.010 287.960 L 288.891 233.962 289.821 233.962 C 290.381 233.962,291.071 233.586,291.557 233.016 C 292.000 232.496,292.525 231.886,292.722 231.661 C 292.920 231.437,293.632 230.205,294.303 228.924 C 294.975 227.643,295.727 226.352,295.975 226.056 C 296.560 225.355,297.560 222.927,297.351 222.718 C 297.262 222.629,297.759 221.258,298.457 219.671 C 299.155 218.085,299.802 216.185,299.896 215.450 C 299.990 214.715,300.169 213.793,300.294 213.400 C 300.418 213.008,300.573 212.339,300.638 211.914 C 300.702 211.489,301.010 210.347,301.321 209.377 C 302.137 206.831,302.188 114.582,301.374 112.967 C 301.091 112.408,300.442 110.171,299.931 107.996 C 297.358 97.052,291.280 90.862,281.042 88.761 C 276.376 87.803,267.504 87.812,262.893 88.780 " stroke="none" fill="#000000" fill-rule="evenodd"></path></g></svg>