<svg id="svg" version="1.1" xmlns="http://www.w3.org/2000/svg" xmlns:xlink="http://www.w3.org/1999/xlink" width="400" height="388.1401617250674" viewBox="0, 0, 400,388.1401617250674"><g id="svgg"><path id="path0" d="M35.580 172.825 C -6.611 182.070,-0.198 244.160,42.947 244.160 C 75.262 244.160,91.307 205.559,68.480 182.733 C 59.920 174.172,47.078 170.305,35.580 172.825 M119.880 188.641 C 119.782 188.800,118.766 188.960,117.622 188.996 C 109.503 189.250,107.895 189.354,107.098 189.678 C 106.604 189.878,105.472 190.250,104.582 190.504 C 100.474 191.676,95.797 194.920,93.315 198.318 C 91.823 200.361,89.488 204.788,89.488 205.574 C 89.488 205.888,89.350 206.299,89.181 206.487 C 88.268 207.504,86.521 217.315,86.465 221.743 C 86.368 229.299,88.512 234.763,93.617 239.971 L 95.808 242.205 91.204 259.737 C 85.971 279.663,85.824 280.779,87.904 284.773 C 91.796 292.247,106.003 295.048,111.522 289.430 C 114.238 286.665,114.511 285.893,119.353 267.283 L 123.810 250.155 125.247 250.361 C 126.038 250.474,127.301 250.720,128.055 250.909 C 130.201 251.447,131.435 251.585,135.585 251.752 C 137.713 251.837,140.058 252.066,140.796 252.260 C 141.535 252.454,145.939 253.259,150.584 254.049 C 155.229 254.839,159.515 255.569,160.108 255.671 C 160.701 255.773,161.914 256.037,162.803 256.258 C 164.149 256.591,167.477 257.247,170.889 257.850 C 171.285 257.920,172.498 258.149,173.585 258.359 C 177.034 259.025,178.888 259.343,181.312 259.681 C 181.905 259.764,183.603 260.069,185.085 260.358 C 192.323 261.769,194.596 262.194,197.664 262.712 C 198.949 262.928,200.485 263.205,201.078 263.326 C 202.667 263.650,203.927 263.531,205.839 262.876 C 206.779 262.554,208.841 262.247,210.422 262.194 C 212.071 262.138,213.891 261.845,214.689 261.507 C 215.454 261.182,216.536 260.916,217.094 260.916 C 217.651 260.916,218.201 260.764,218.316 260.578 C 218.431 260.392,219.290 260.142,220.224 260.024 C 224.130 259.529,229.090 257.435,229.741 256.008 C 230.006 255.427,230.324 255.212,230.702 255.361 C 248.819 262.501,331.966 292.618,333.784 292.699 C 336.482 292.818,341.060 291.789,341.060 291.063 C 341.060 290.889,341.241 290.746,341.462 290.746 C 341.941 290.746,344.201 288.497,345.281 286.945 C 350.672 279.202,350.086 269.467,343.958 264.941 C 342.280 263.702,334.510 260.736,289.020 243.968 C 259.879 233.227,235.987 224.277,235.926 224.079 C 235.865 223.881,235.711 223.093,235.583 222.327 C 235.371 221.056,231.241 216.397,230.294 216.362 C 230.154 216.356,229.346 215.705,228.497 214.913 C 227.649 214.121,226.226 213.123,225.337 212.694 C 224.447 212.266,223.278 211.552,222.739 211.108 C 221.524 210.109,217.297 208.086,216.423 208.086 C 216.068 208.086,215.624 207.940,215.436 207.761 C 214.764 207.120,212.197 205.820,210.961 205.495 C 207.622 204.615,204.047 203.885,197.305 202.705 C 195.229 202.342,192.156 201.778,190.476 201.451 C 188.796 201.125,187.098 200.805,186.703 200.741 C 186.307 200.677,184.367 200.289,182.390 199.881 C 180.413 199.472,177.260 198.875,175.382 198.554 C 173.504 198.234,170.674 197.740,169.093 197.456 C 165.875 196.880,165.039 196.739,163.015 196.430 C 162.241 196.312,160.705 195.984,159.600 195.701 C 158.496 195.418,156.703 195.075,155.615 194.940 C 154.528 194.804,153.438 194.534,153.191 194.339 C 152.945 194.145,152.420 194.070,152.024 194.174 C 151.628 194.277,151.213 194.215,151.102 194.036 C 150.992 193.857,150.499 193.711,150.009 193.711 C 149.518 193.711,147.950 193.472,146.526 193.180 C 145.101 192.888,143.208 192.575,142.318 192.484 C 141.429 192.393,139.407 192.050,137.826 191.723 C 136.244 191.395,134.142 190.978,133.154 190.796 C 132.165 190.615,130.872 190.375,130.279 190.264 C 129.686 190.154,128.796 190.021,128.302 189.969 C 127.808 189.917,127.161 189.782,126.864 189.668 C 126.203 189.413,124.291 189.056,122.372 188.828 C 121.581 188.734,120.737 188.588,120.497 188.504 C 120.256 188.420,119.978 188.482,119.880 188.641 " stroke="none" fill="#000000" fill-rule="evenodd"></path></g></svg>