<svg id="svg" version="1.1" xmlns="http://www.w3.org/2000/svg" xmlns:xlink="http://www.w3.org/1999/xlink" width="400" height="388.1401617250674" viewBox="0, 0, 400,388.1401617250674"><g id="svgg"><path id="path0" d="M159.209 73.633 C 117.019 82.879,123.432 144.969,166.577 144.969 C 202.427 144.969,216.356 98.403,186.373 78.788 C 178.663 73.744,167.966 71.714,159.209 73.633 M61.456 139.849 C 53.157 141.364,48.697 156.481,54.760 162.545 C 57.466 165.250,55.353 164.747,110.325 175.758 L 161.545 186.017 163.046 189.594 C 163.871 191.562,164.558 193.457,164.573 193.805 C 164.588 194.154,164.756 194.720,164.945 195.063 C 165.445 195.966,168.553 204.484,168.553 204.950 C 168.553 205.167,168.857 206.001,169.229 206.805 C 169.600 207.608,170.011 208.509,170.141 208.805 C 170.272 209.102,170.574 209.671,170.814 210.070 C 172.752 213.304,173.295 214.364,173.963 216.215 C 174.383 217.377,174.937 218.814,175.194 219.407 C 175.451 220.000,176.101 221.779,176.638 223.360 C 177.176 224.942,177.792 226.559,178.009 226.954 C 178.225 227.350,178.439 227.835,178.485 228.032 C 178.530 228.230,178.910 229.281,179.329 230.368 C 179.748 231.456,180.333 233.073,180.630 233.962 C 180.926 234.852,181.309 235.903,181.480 236.298 C 182.030 237.563,184.726 245.350,184.729 245.682 C 184.731 245.858,185.130 246.810,185.616 247.799 C 186.103 248.787,186.505 249.821,186.512 250.095 C 186.518 250.370,186.832 251.260,187.209 252.072 C 188.055 253.895,188.791 255.674,189.380 257.323 C 189.628 258.014,189.951 258.904,190.099 259.299 C 190.658 260.790,191.179 262.489,191.099 262.556 C 191.031 262.613,183.538 261.948,166.757 260.398 C 156.248 259.427,152.315 260.380,149.777 264.510 C 149.352 265.202,148.872 265.860,148.710 265.973 C 148.146 266.365,147.319 271.462,147.263 274.892 C 147.198 278.838,147.333 279.619,148.527 282.219 C 149.735 284.848,190.800 362.244,191.314 362.861 C 195.318 367.665,200.024 369.499,205.211 368.277 C 208.568 367.487,216.730 362.904,217.373 361.449 C 217.440 361.297,217.728 360.940,218.013 360.655 C 220.075 358.593,221.336 353.126,220.567 349.586 C 220.193 347.867,218.992 345.524,204.165 317.577 C 196.212 302.585,189.789 290.235,189.892 290.132 C 189.996 290.028,200.560 290.855,213.369 291.968 C 226.178 293.081,237.305 293.926,238.095 293.845 C 241.217 293.525,244.485 291.627,245.910 289.308 C 246.335 288.616,246.815 287.958,246.976 287.846 C 247.138 287.734,247.495 286.568,247.769 285.255 C 248.044 283.942,248.625 282.368,249.059 281.757 C 251.166 278.799,252.671 265.362,251.515 259.838 C 251.287 258.751,251.066 257.026,251.023 256.005 C 250.867 252.318,248.752 244.874,246.880 241.424 C 246.693 241.081,246.541 240.484,246.541 240.098 C 246.541 239.712,246.397 239.307,246.221 239.198 C 246.046 239.089,245.797 238.554,245.669 238.009 C 245.453 237.088,244.812 235.335,240.253 223.181 C 239.326 220.710,238.421 218.535,238.241 218.347 C 238.062 218.159,237.916 217.737,237.916 217.408 C 237.916 217.079,237.422 215.616,236.818 214.155 C 236.215 212.695,235.317 210.298,234.822 208.829 C 234.328 207.359,233.815 205.985,233.683 205.774 C 233.551 205.563,233.415 205.229,233.381 205.031 C 233.346 204.834,232.828 203.338,232.228 201.707 C 231.628 200.076,231.247 198.740,231.382 198.737 C 231.516 198.734,231.459 198.612,231.254 198.467 C 231.049 198.322,230.426 196.828,229.870 195.148 C 229.313 193.468,228.650 191.608,228.396 191.015 C 227.093 187.971,223.333 178.102,222.590 175.776 C 222.122 174.313,221.610 172.938,221.451 172.721 C 221.292 172.504,220.687 170.872,220.105 169.093 C 219.383 166.884,218.744 165.600,218.091 165.044 C 217.565 164.597,216.196 162.658,215.050 160.736 C 208.584 149.902,200.487 145.870,188.403 147.469 C 183.430 148.127,173.543 151.974,170.931 154.268 C 170.537 154.614,170.084 154.897,169.923 154.897 C 169.620 154.897,169.446 155.049,166.528 157.860 L 164.758 159.566 115.353 149.677 C 63.334 139.265,63.996 139.385,61.456 139.849 " stroke="none" fill="#000000" fill-rule="evenodd"></path></g></svg>