<svg id="svg" version="1.1" xmlns="http://www.w3.org/2000/svg" xmlns:xlink="http://www.w3.org/1999/xlink" width="400" height="388.1401617250674" viewBox="0, 0, 400,388.1401617250674"><g id="svgg"><path id="path0" d="M194.429 21.162 C 152.239 30.408,158.652 92.498,201.797 92.498 C 222.498 92.498,237.691 77.305,237.691 56.604 C 237.691 33.457,216.721 16.278,194.429 21.162 M195.951 99.361 C 184.641 101.904,178.098 108.325,175.797 119.137 C 175.058 122.614,174.980 124.292,174.509 146.810 C 174.472 148.589,174.650 151.339,174.905 152.920 C 175.820 158.607,176.067 157.412,166.011 196.013 C 155.988 234.492,156.166 233.639,157.426 237.197 C 158.180 239.326,160.580 242.188,161.635 242.216 C 161.882 242.223,162.084 242.390,162.084 242.588 C 162.084 242.785,162.408 242.947,162.803 242.947 C 163.199 242.947,163.522 243.077,163.522 243.236 C 163.522 243.756,170.469 245.249,172.686 245.205 C 175.480 245.150,177.902 244.096,179.855 242.088 L 181.385 240.513 182.657 242.718 C 184.440 245.811,185.537 246.900,186.865 246.900 L 187.960 246.900 187.954 252.561 C 187.951 255.674,187.712 276.090,187.423 297.929 C 186.689 353.440,186.692 357.264,187.471 359.431 C 189.341 364.630,193.302 367.112,200.660 367.695 C 209.154 368.368,213.379 366.372,216.365 360.274 L 217.591 357.772 218.204 309.793 C 218.541 283.405,218.828 258.652,218.842 254.786 L 218.868 247.757 220.297 247.127 C 221.083 246.780,222.013 246.109,222.363 245.636 C 224.707 242.471,228.212 236.657,228.212 235.932 C 228.212 235.659,228.796 234.106,229.510 232.482 C 230.224 230.858,231.019 228.384,231.277 226.984 C 231.534 225.584,232.089 223.549,232.510 222.462 C 233.494 219.918,233.695 216.115,234.129 191.914 C 234.397 176.943,234.664 165.818,234.870 161.006 C 234.968 158.733,235.124 150.710,235.216 143.177 C 235.308 135.644,235.486 129.214,235.611 128.888 C 235.736 128.563,235.582 127.905,235.268 127.426 C 234.732 126.608,233.952 123.338,233.418 119.677 C 232.289 111.922,227.641 105.557,220.485 101.966 C 215.101 99.264,202.386 97.914,195.951 99.361 " stroke="none" fill="#000000" fill-rule="evenodd"></path></g></svg>