<svg id="svg" version="1.1" xmlns="http://www.w3.org/2000/svg" xmlns:xlink="http://www.w3.org/1999/xlink" width="400" height="388.1401617250674" viewBox="0, 0, 400,388.1401617250674"><g id="svgg"><path id="path0" d="M190.476 16.131 C 148.286 25.377,154.699 87.466,197.844 87.466 C 218.545 87.466,233.738 72.273,233.738 51.572 C 233.738 28.425,212.768 11.246,190.476 16.131 M159.789 95.138 C 159.745 95.181,158.829 95.322,157.752 95.451 C 154.617 95.826,149.865 99.058,149.865 100.816 C 149.865 101.076,149.732 101.342,149.569 101.408 C 148.741 101.742,106.227 229.483,106.179 231.782 C 106.114 234.825,107.262 237.979,108.934 239.353 C 111.317 241.312,112.350 241.867,115.752 243.012 C 122.072 245.138,125.806 244.552,129.290 240.885 C 130.130 240.001,130.818 239.066,130.818 238.806 C 130.818 238.547,130.952 238.281,131.115 238.215 C 131.279 238.149,136.737 222.256,143.245 202.896 L 155.076 167.698 155.256 198.404 L 155.436 229.111 156.261 230.934 L 157.087 232.758 157.160 268.131 L 157.233 303.504 158.239 305.660 C 160.746 311.034,163.748 312.614,171.697 312.745 C 179.480 312.872,182.947 311.016,185.163 305.534 L 185.984 303.504 186.081 271.608 L 186.179 239.712 198.929 239.712 L 211.680 239.712 211.684 247.529 C 211.695 271.063,213.143 361.523,213.537 363.287 C 215.031 369.975,220.163 373.060,228.697 372.400 C 235.119 371.904,238.095 370.436,240.315 366.672 C 242.348 363.223,242.292 367.264,241.326 294.160 C 240.837 257.197,240.444 217.412,240.452 205.750 L 240.467 184.546 250.010 177.358 C 259.843 169.953,262.118 168.078,261.737 167.696 C 261.615 167.575,261.704 167.475,261.935 167.475 C 262.165 167.475,262.354 167.233,262.354 166.936 C 262.354 166.640,262.504 166.397,262.688 166.397 C 263.282 166.397,264.238 162.362,264.008 160.827 C 263.765 159.206,263.523 157.995,263.415 157.862 C 263.375 157.812,263.308 157.650,263.266 157.502 C 263.061 156.774,262.506 155.675,261.769 154.537 C 260.972 153.306,244.385 105.131,244.385 104.046 C 244.385 101.059,239.958 97.093,234.795 95.454 C 234.120 95.240,159.999 94.927,159.789 95.138 " stroke="none" fill="#000000" fill-rule="evenodd"></path></g></svg>