<svg id="svg" xmlns="http://www.w3.org/2000/svg" xmlns:xlink="http://www.w3.org/1999/xlink" width="400" height="388.1401617250674" viewBox="0, 0, 400,388.1401617250674"><g id="svgg"><path id="path0" d="M190.476 17.209 C 148.286 26.455,154.699 88.545,197.844 88.545 C 218.545 88.545,233.738 73.352,233.738 52.650 C 233.738 29.504,212.768 12.324,190.476 17.209 M158.964 96.570 C 158.407 96.808,157.505 97.010,156.959 97.019 C 155.254 97.047,152.763 98.494,151.095 100.426 C 150.216 101.445,126.792 120.627,99.043 143.053 C 46.462 185.547,46.900 185.173,46.133 188.354 C 45.692 190.182,45.739 192.467,46.251 194.193 C 47.483 198.342,53.026 204.636,56.181 205.469 C 57.651 205.857,61.983 205.879,62.438 205.500 C 62.689 205.293,62.893 205.244,62.893 205.391 C 62.893 205.538,63.161 205.437,63.487 205.165 C 63.814 204.894,64.097 204.723,64.116 204.785 C 64.261 205.258,143.599 141.754,154.678 132.296 C 155.345 131.727,155.355 133.966,155.217 248.338 L 155.076 364.960 156.082 367.116 C 158.590 372.490,161.591 374.070,169.541 374.200 C 177.325 374.328,180.802 372.465,183.002 366.989 L 183.817 364.960 184.043 325.606 C 184.167 303.962,184.291 276.024,184.318 263.522 L 184.367 240.791 198.023 240.791 L 211.680 240.791 211.684 248.607 C 211.695 272.141,213.143 362.601,213.537 364.365 C 215.031 371.053,220.163 374.139,228.697 373.479 C 235.119 372.982,238.095 371.514,240.315 367.750 C 242.349 364.300,242.293 368.451,241.317 293.980 C 240.637 242.072,240.443 214.293,240.515 179.105 L 240.611 132.693 284.996 167.360 C 309.407 186.427,329.704 202.158,330.099 202.318 C 330.494 202.478,330.898 202.617,330.997 202.627 C 331.096 202.637,331.620 202.813,332.160 203.019 C 334.747 204.002,340.341 203.477,340.341 202.251 C 340.341 202.034,340.440 201.955,340.560 202.075 C 340.680 202.195,341.204 201.899,341.724 201.416 C 342.244 200.934,342.767 200.539,342.885 200.539 C 343.256 200.539,347.358 195.030,347.969 193.711 C 349.059 191.358,349.464 188.137,348.873 186.523 C 348.692 186.029,348.481 185.313,348.404 184.932 C 348.328 184.551,348.059 184.109,347.807 183.949 C 347.555 183.790,347.511 183.654,347.709 183.648 C 347.907 183.642,347.860 183.505,347.606 183.343 C 347.352 183.182,346.786 182.547,346.348 181.933 C 345.499 180.740,240.149 98.330,238.634 97.673 C 238.140 97.459,237.574 97.247,237.376 97.201 C 237.179 97.156,236.327 96.931,235.484 96.702 C 233.227 96.089,160.383 95.963,158.964 96.570 " stroke="none" fill="#000000" fill-rule="evenodd"></path></g></svg>