<svg id="svg" version="1.1" xmlns="http://www.w3.org/2000/svg" xmlns:xlink="http://www.w3.org/1999/xlink" width="400" height="388.1401617250674" viewBox="0, 0, 400,388.1401617250674"><g id="svgg"><path id="path0" d="M71.878 90.165 C 29.688 99.411,36.100 161.501,79.245 161.501 C 111.560 161.501,127.605 122.900,104.779 100.073 C 96.218 91.513,83.376 87.645,71.878 90.165 M135.310 137.164 C 133.729 137.422,132.081 137.694,131.649 137.767 C 130.884 137.898,129.393 138.516,126.889 139.739 C 122.365 141.950,117.545 148.508,113.110 158.491 C 110.773 163.749,110.200 172.866,111.943 177.039 C 112.421 178.183,111.885 180.374,99.494 227.931 C 85.043 283.399,85.685 280.306,87.737 284.557 C 91.163 291.652,105.636 295.122,110.872 290.104 C 114.326 286.794,113.974 287.923,126.133 241.145 C 132.323 217.329,137.495 197.722,137.626 197.573 C 137.757 197.424,138.987 197.849,140.361 198.518 C 146.596 201.555,148.480 202.333,151.842 203.256 C 153.819 203.798,157.104 205.029,159.144 205.991 C 161.184 206.952,162.989 207.654,163.156 207.551 C 163.324 207.448,163.515 207.485,163.581 207.635 C 163.716 207.938,166.833 209.517,167.335 209.536 C 167.511 209.543,168.302 209.861,169.093 210.243 C 169.883 210.625,170.719 210.942,170.949 210.949 C 171.180 210.956,171.423 211.090,171.488 211.248 C 171.554 211.406,173.064 212.152,174.843 212.907 C 177.873 214.193,180.585 215.438,186.740 218.370 C 188.145 219.039,189.419 219.587,189.571 219.587 C 189.724 219.587,190.839 220.060,192.049 220.639 C 194.955 222.028,199.114 223.899,199.297 223.899 C 199.377 223.899,200.502 224.385,201.797 224.978 C 203.092 225.571,204.245 226.056,204.360 226.056 C 204.562 226.056,206.035 226.730,212.250 229.665 C 214.226 230.598,215.490 230.987,216.203 230.879 C 218.031 230.605,220.417 230.720,222.642 231.190 C 223.827 231.440,226.173 231.589,227.853 231.521 C 231.617 231.367,232.409 231.357,235.599 231.426 C 238.102 231.481,241.307 230.968,242.034 230.397 C 242.258 230.221,259.536 242.180,285.175 260.258 C 322.319 286.447,329.270 291.238,330.728 291.657 C 330.876 291.699,331.038 291.766,331.087 291.806 C 332.802 293.173,339.714 292.144,342.126 290.162 C 350.891 282.963,353.166 272.857,347.427 266.618 C 346.948 266.096,326.276 251.400,301.490 233.959 C 249.756 197.556,255.217 201.626,255.974 200.038 C 256.659 198.603,256.296 196.567,255.132 195.305 C 254.755 194.897,254.447 194.440,254.447 194.290 C 254.447 193.118,246.101 184.007,242.723 181.491 C 241.794 180.800,240.373 179.656,239.565 178.950 C 237.211 176.895,234.764 175.407,231.839 174.252 C 230.338 173.660,227.978 172.636,226.595 171.978 C 221.328 169.471,218.323 168.140,217.002 167.727 C 216.249 167.492,215.633 167.191,215.633 167.057 C 215.633 166.923,215.148 166.707,214.555 166.577 C 213.962 166.447,213.477 166.191,213.477 166.009 C 213.477 165.827,213.306 165.678,213.098 165.678 C 212.716 165.678,211.495 165.150,206.755 162.935 C 205.331 162.270,204.078 161.725,203.971 161.725 C 203.863 161.725,202.749 161.240,201.494 160.647 C 200.238 160.054,199.066 159.569,198.887 159.569 C 198.709 159.569,197.026 158.821,195.148 157.907 C 193.270 156.993,191.411 156.125,191.015 155.977 C 190.232 155.684,188.561 154.913,182.107 151.866 C 179.778 150.765,177.715 149.865,177.524 149.865 C 177.334 149.865,175.480 149.057,173.405 148.068 C 171.330 147.080,169.556 146.271,169.462 146.271 C 169.367 146.271,168.195 145.769,166.855 145.154 C 165.516 144.540,163.622 143.722,162.646 143.336 C 161.670 142.950,159.163 141.809,157.075 140.801 C 154.461 139.538,152.749 138.937,151.576 138.871 C 150.639 138.818,149.566 138.678,149.191 138.559 C 148.816 138.440,147.898 138.264,147.151 138.168 C 146.404 138.073,145.603 137.837,145.370 137.644 C 145.138 137.451,144.863 137.377,144.761 137.479 C 144.658 137.582,144.150 137.505,143.633 137.308 C 142.101 136.726,138.389 136.661,135.310 137.164 " stroke="none" fill="#000000" fill-rule="evenodd"></path></g></svg>