<svg id="svg" xmlns="http://www.w3.org/2000/svg" xmlns:xlink="http://www.w3.org/1999/xlink" width="400" height="400" viewBox="0, 0, 400,400"><g id="svgg"><path id="path0" d="M216.399 5.500 C 214.268 8.525,211.856 13.250,211.038 16.000 C 203.525 41.261,159.578 45.542,140.964 22.826 C 131.026 10.698,127.377 10.249,109.970 19.015 C 74.412 36.922,70.720 41.407,77.058 59.000 C 87.862 88.991,66.470 116.884,32.604 116.962 C 23.586 116.983,15.316 117.900,14.227 119.000 C 10.437 122.828,1.573 157.080,1.287 169.000 L 1.000 181.000 16.684 189.000 C 48.638 205.299,52.192 238.555,24.134 258.712 C 10.957 268.180,10.105 272.343,18.092 288.251 C 37.121 326.156,42.809 330.353,63.891 322.043 C 91.737 311.067,118.000 333.202,118.000 367.648 L 118.000 385.495 137.500 391.991 C 174.764 404.405,183.463 402.990,189.859 383.478 C 198.240 357.911,243.902 353.603,259.910 376.869 C 268.060 388.715,271.172 389.322,286.984 382.153 C 323.786 365.466,332.101 355.880,323.833 339.673 C 309.732 312.032,331.851 281.655,365.613 282.296 C 385.509 282.675,384.515 283.469,391.897 261.309 C 403.868 225.377,402.971 219.249,384.457 210.483 C 360.421 199.102,354.880 159.494,374.975 142.697 C 389.555 130.510,389.825 128.811,380.236 109.623 C 362.989 75.114,356.119 69.718,338.692 77.000 C 313.778 87.410,279.402 62.160,282.988 36.084 C 285.879 15.069,283.468 12.784,249.180 4.036 C 227.208 -1.570,221.189 -1.301,216.399 5.500 M226.808 96.169 C 272.051 105.031,307.901 150.042,307.976 198.080 C 308.108 282.029,213.207 332.927,144.582 285.712 C 48.700 219.744,112.059 73.693,226.808 96.169 " stroke="none" fill="#000000" fill-rule="evenodd"></path></g></svg>