<svg id="svg" version="1.1" xmlns="http://www.w3.org/2000/svg" xmlns:xlink="http://www.w3.org/1999/xlink" width="400" height="198.8950276243094" viewBox="0, 0, 400,198.8950276243094"><g id="svgg"><path id="path0" d="M144.008 21.955 C 143.187 22.204,141.979 22.679,141.323 23.011 C 140.666 23.343,139.547 23.772,138.836 23.964 C 138.125 24.156,136.917 24.656,136.151 25.074 C 135.321 25.528,134.157 25.958,133.267 26.140 C 132.447 26.308,131.149 26.772,130.383 27.171 C 129.617 27.570,128.368 28.111,127.606 28.371 C 126.845 28.632,125.637 29.199,124.921 29.631 C 124.206 30.063,123.217 30.558,122.725 30.731 C 122.233 30.904,121.248 31.396,120.537 31.825 C 119.826 32.254,118.874 32.735,118.421 32.894 C 116.957 33.409,116.323 33.831,114.926 35.221 C 113.797 36.343,113.352 36.644,112.420 36.917 C 111.798 37.099,110.840 37.381,110.293 37.544 C 108.639 38.037,105.278 40.293,103.806 41.900 C 101.622 44.284,99.939 45.651,98.579 46.146 C 96.895 46.759,95.667 47.802,95.112 49.092 C 94.623 50.231,94.505 50.342,92.965 51.117 C 92.062 51.571,90.977 52.530,88.215 55.313 C 86.246 57.297,83.883 59.510,82.964 60.231 C 82.045 60.951,80.897 62.083,80.413 62.745 C 79.929 63.407,77.139 66.365,74.213 69.319 C 68.894 74.688,67.312 76.583,66.145 78.986 C 65.822 79.650,64.959 80.769,64.013 81.750 C 62.855 82.951,62.216 83.820,61.666 84.947 C 60.947 86.418,59.059 89.142,58.352 89.729 C 58.171 89.879,57.633 90.841,57.158 91.865 C 56.520 93.239,55.926 94.135,54.896 95.278 C 53.649 96.661,52.312 99.047,52.312 99.890 C 52.312 99.991,52.051 100.403,51.731 100.807 C 51.183 101.499,50.124 103.821,50.124 104.330 C 50.124 104.458,49.952 104.719,49.741 104.909 C 49.314 105.296,48.496 106.891,48.101 108.105 C 47.959 108.543,47.597 109.216,47.296 109.602 C 46.775 110.269,45.748 112.586,45.748 113.095 C 45.748 113.227,45.487 113.614,45.167 113.956 C 44.848 114.298,44.350 115.225,44.061 116.016 C 43.489 117.583,43.520 117.521,42.684 118.724 C 42.162 119.475,41.913 120.153,41.360 122.327 C 41.263 122.710,41.181 123.880,41.178 124.928 C 41.174 126.694,41.138 126.866,40.681 127.295 C 40.411 127.549,40.042 128.169,39.861 128.672 C 39.681 129.176,39.410 129.869,39.260 130.214 C 39.109 130.559,38.986 130.998,38.986 131.190 C 38.986 131.382,38.767 131.825,38.500 132.175 C 37.601 133.355,36.812 136.462,36.802 138.866 C 36.798 139.590,36.646 140.016,36.099 140.828 C 35.716 141.399,35.354 142.102,35.297 142.390 C 35.239 142.678,35.061 143.317,34.900 143.809 C 34.679 144.484,34.608 145.758,34.609 149.000 C 34.610 153.126,34.593 153.310,34.188 153.674 C 33.685 154.125,32.967 155.674,32.650 156.989 C 32.299 158.445,32.348 177.763,32.706 179.214 C 33.403 182.042,34.523 183.234,37.166 183.961 C 38.508 184.330,119.594 184.562,124.019 184.209 C 127.819 183.907,129.659 182.955,130.350 180.932 C 131.145 178.609,131.280 178.023,131.279 176.902 C 131.278 176.035,131.368 175.608,131.591 175.423 C 132.778 174.438,133.460 171.194,133.463 166.513 L 133.466 163.061 134.057 162.315 C 134.963 161.171,135.633 159.084,135.647 157.363 C 135.652 156.707,135.799 156.314,136.251 155.743 C 136.579 155.329,136.847 154.927,136.847 154.850 C 136.847 154.701,137.355 153.489,137.660 152.912 C 137.760 152.722,137.842 152.436,137.842 152.278 C 137.842 152.119,138.110 151.695,138.438 151.336 C 138.987 150.735,140.030 148.428,140.030 147.815 C 140.030 147.670,140.332 147.199,140.702 146.766 C 141.274 146.099,142.213 144.072,142.220 143.490 C 142.221 143.392,142.950 142.551,143.839 141.621 C 144.776 140.641,145.653 139.504,145.926 138.916 C 146.465 137.755,146.765 137.461,147.919 136.962 C 149.256 136.383,151.161 133.610,151.168 132.232 C 151.170 131.762,153.984 129.372,155.147 128.852 C 157.746 127.690,158.100 127.441,160.226 125.285 C 162.713 122.764,162.976 122.562,164.595 121.928 C 165.251 121.671,166.238 121.177,166.788 120.831 C 167.338 120.485,168.317 120.003,168.965 119.761 C 169.612 119.518,170.639 119.016,171.247 118.645 C 171.898 118.246,172.965 117.833,173.844 117.638 C 175.083 117.363,178.419 115.914,178.419 115.651 C 178.419 115.539,177.686 115.847,176.330 116.529 C 175.674 116.860,174.517 117.272,173.759 117.446 C 173.002 117.620,171.704 118.114,170.875 118.543 C 170.047 118.972,168.787 119.594,168.076 119.926 C 167.364 120.258,166.380 120.753,165.888 121.027 C 165.395 121.301,164.447 121.757,163.780 122.039 C 162.784 122.461,162.129 122.992,160.116 125.008 C 158.466 126.660,157.367 127.594,156.754 127.865 C 156.253 128.086,155.351 128.484,154.749 128.748 C 153.545 129.277,150.970 131.656,150.970 132.240 C 150.970 132.428,150.849 132.758,150.701 132.974 C 150.553 133.190,150.370 133.624,150.293 133.939 C 149.984 135.210,148.630 136.604,147.268 137.054 C 146.789 137.212,146.377 137.626,145.731 138.600 C 144.812 139.985,144.252 140.569,142.914 141.539 C 142.173 142.076,142.196 142.030,143.260 140.865 C 143.888 140.177,144.499 139.417,144.619 139.176 C 144.747 138.917,144.622 138.999,144.314 139.376 C 144.027 139.727,143.505 140.216,143.154 140.462 C 142.700 140.780,142.597 140.809,142.796 140.561 C 143.017 140.285,143.025 140.162,142.832 139.972 C 142.697 139.840,142.616 139.821,142.651 139.930 C 142.710 140.113,142.577 140.229,142.310 140.229 C 142.252 140.229,142.297 140.055,142.411 139.842 C 142.589 139.510,142.559 139.467,142.201 139.536 C 141.900 139.594,141.814 139.536,141.894 139.328 C 141.957 139.165,141.900 139.061,141.763 139.087 C 141.630 139.113,141.542 139.028,141.567 138.898 C 141.592 138.768,141.436 138.605,141.219 138.537 C 141.003 138.468,140.825 138.328,140.825 138.226 C 140.825 138.124,140.708 138.041,140.565 138.041 C 140.421 138.041,140.111 137.780,139.876 137.462 C 139.281 136.657,134.907 133.176,132.330 131.457 C 131.150 130.669,129.513 129.517,128.692 128.897 C 127.872 128.277,126.260 127.139,125.110 126.369 C 123.960 125.598,122.349 124.436,121.530 123.785 C 119.118 121.869,111.162 116.093,108.026 113.980 C 107.326 113.508,105.234 112.014,103.379 110.659 C 101.523 109.304,98.733 107.352,97.179 106.321 C 95.624 105.289,93.643 103.834,92.775 103.087 C 90.588 101.202,86.055 97.789,83.441 96.059 C 82.238 95.263,80.575 94.017,79.746 93.290 C 78.918 92.563,77.289 91.402,76.126 90.709 C 74.964 90.017,73.225 88.743,72.263 87.879 C 71.213 86.937,69.985 86.052,69.196 85.671 C 68.248 85.211,67.808 84.870,67.621 84.448 C 67.342 83.817,66.477 82.960,66.110 82.950 C 65.791 82.941,65.636 81.932,65.880 81.454 C 65.993 81.234,65.655 81.457,65.130 81.949 C 64.133 82.883,64.203 82.584,65.339 81.054 C 65.583 80.726,66.063 79.902,66.405 79.222 C 67.880 76.301,68.830 75.145,74.385 69.518 C 77.408 66.455,80.274 63.426,80.754 62.787 C 81.234 62.149,82.169 61.211,82.832 60.703 C 84.493 59.431,84.890 59.060,88.567 55.340 C 91.753 52.116,92.787 51.252,93.741 51.012 C 94.272 50.879,94.798 50.258,95.433 49.014 C 96.022 47.858,96.987 47.000,98.214 46.541 C 100.110 45.832,100.501 45.546,103.232 42.876 C 106.865 39.324,108.705 38.102,111.454 37.415 C 113.356 36.940,113.613 36.789,115.365 35.124 C 116.372 34.167,117.180 33.587,117.852 33.339 C 118.399 33.136,119.562 32.586,120.438 32.116 C 121.313 31.646,122.517 31.069,123.115 30.834 C 123.712 30.598,124.697 30.100,125.303 29.728 C 125.909 29.355,126.897 28.881,127.499 28.674 C 128.100 28.468,129.354 27.928,130.283 27.476 C 131.213 27.023,132.645 26.513,133.466 26.343 C 134.333 26.163,135.541 25.718,136.350 25.279 C 137.116 24.863,138.410 24.323,139.226 24.078 C 140.041 23.834,141.301 23.335,142.024 22.971 C 142.748 22.607,143.857 22.174,144.489 22.009 C 145.121 21.843,145.689 21.657,145.751 21.595 C 145.941 21.406,145.566 21.483,144.008 21.955 M38.066 135.828 C 37.996 136.177,37.897 136.422,37.846 136.371 C 37.796 136.321,37.816 135.998,37.892 135.654 C 38.071 134.838,38.231 134.999,38.066 135.828 M132.609 170.413 C 132.558 170.604,132.518 170.448,132.518 170.065 C 132.518 169.682,132.558 169.525,132.609 169.717 C 132.659 169.908,132.659 170.221,132.609 170.413 M267.177 176.827 C 267.177 177.210,267.218 177.367,267.268 177.176 C 267.318 176.984,267.318 176.671,267.268 176.479 C 267.218 176.288,267.177 176.445,267.177 176.827 " stroke="none" fill="#1ea414" fill-rule="evenodd"></path><path id="path1" d="M256.631 22.963 C 257.585 23.461,258.435 23.867,258.521 23.866 C 258.766 23.862,255.908 22.339,255.375 22.190 C 255.113 22.117,255.678 22.464,256.631 22.963 M259.175 24.091 C 259.448 24.215,260.395 24.663,261.278 25.087 C 262.162 25.511,262.967 25.855,263.068 25.852 C 263.347 25.844,259.745 24.113,259.175 23.982 L 258.677 23.867 259.175 24.091 M264.760 26.130 C 264.806 26.170,265.201 26.257,265.639 26.324 C 266.193 26.408,266.314 26.390,266.037 26.265 C 265.655 26.092,264.590 25.979,264.760 26.130 M268.026 27.349 C 268.901 27.859,270.065 28.454,270.612 28.671 C 271.159 28.888,272.193 29.417,272.911 29.848 C 273.629 30.279,274.298 30.632,274.398 30.632 C 274.756 30.632,271.785 28.913,270.811 28.557 C 270.264 28.357,269.279 27.860,268.623 27.452 C 267.966 27.045,267.205 26.646,266.932 26.566 C 266.658 26.486,267.151 26.838,268.026 27.349 M275.477 31.039 C 275.965 31.263,276.674 31.638,277.054 31.873 C 277.433 32.107,277.676 32.190,277.594 32.058 C 277.420 31.776,275.805 30.938,275.087 30.756 C 274.814 30.687,274.989 30.814,275.477 31.039 M280.656 33.491 C 280.656 33.538,280.975 33.764,281.365 33.994 C 281.754 34.223,282.017 34.321,281.949 34.211 C 281.815 33.995,280.656 33.350,280.656 33.491 M288.016 37.361 C 288.180 37.462,288.538 37.605,288.812 37.678 C 289.157 37.771,289.218 37.755,289.010 37.627 C 288.846 37.525,288.488 37.383,288.215 37.309 C 287.869 37.217,287.809 37.233,288.016 37.361 M291.119 39.201 C 292.615 40.961,292.910 41.279,293.692 41.979 C 294.640 42.829,295.987 43.760,296.267 43.759 C 296.378 43.758,296.156 43.570,295.773 43.340 C 294.916 42.824,292.794 41.026,292.400 40.481 C 292.240 40.260,291.712 39.677,291.227 39.184 L 290.344 38.289 291.119 39.201 M302.934 48.810 C 305.458 51.381,307.358 52.913,308.006 52.902 C 308.115 52.900,307.699 52.624,307.081 52.289 C 306.336 51.884,305.092 50.798,303.384 49.062 C 301.968 47.622,300.638 46.316,300.430 46.159 C 300.221 46.002,301.348 47.195,302.934 48.810 M309.702 53.635 C 309.973 53.816,310.468 54.196,310.802 54.481 C 311.137 54.765,311.016 54.617,310.534 54.152 C 310.052 53.687,309.557 53.307,309.434 53.307 C 309.311 53.307,309.432 53.455,309.702 53.635 M313.886 57.711 C 315.804 59.518,317.324 60.811,319.049 62.103 C 321.021 63.580,322.059 64.718,322.821 66.236 C 323.069 66.728,323.972 67.810,324.829 68.641 C 325.686 69.472,326.619 70.591,326.903 71.128 C 327.187 71.664,327.357 71.880,327.281 71.606 C 327.045 70.760,326.303 69.770,324.883 68.407 C 324.038 67.596,323.311 66.674,322.974 65.986 C 322.453 64.923,320.693 62.932,319.642 62.218 C 318.690 61.572,316.890 60.159,315.040 58.606 C 314.016 57.747,313.496 57.344,313.886 57.711 M327.820 73.319 C 327.804 73.607,328.545 74.479,330.184 76.103 C 333.689 79.575,334.895 81.210,335.736 83.626 C 336.227 85.038,336.142 85.288,335.558 84.145 C 335.327 83.691,334.953 83.033,334.728 82.684 C 334.352 82.101,334.343 82.206,334.693 83.076 C 334.788 83.312,334.754 83.362,334.572 83.250 C 334.384 83.134,334.353 83.202,334.453 83.516 C 334.535 83.776,334.501 83.938,334.363 83.938 C 334.239 83.938,334.194 83.849,334.262 83.739 C 334.329 83.630,334.328 83.541,334.259 83.541 C 333.989 83.541,332.361 84.590,332.208 84.863 C 332.119 85.022,331.438 85.279,330.693 85.435 C 329.053 85.778,328.517 86.083,326.043 88.085 C 324.984 88.942,322.775 90.566,321.134 91.695 C 318.168 93.736,316.709 94.803,313.476 97.299 C 312.546 98.017,311.248 98.944,310.592 99.359 C 309.935 99.774,308.324 100.934,307.011 101.938 C 305.699 102.941,303.648 104.415,302.454 105.214 C 301.260 106.012,299.023 107.620,297.482 108.787 C 295.940 109.954,293.560 111.705,292.193 112.677 C 290.825 113.649,288.722 115.174,287.519 116.066 C 286.315 116.958,283.362 119.107,280.955 120.842 C 278.548 122.577,275.863 124.547,274.988 125.219 C 274.112 125.891,272.680 126.918,271.805 127.499 C 270.930 128.081,269.475 129.124,268.572 129.816 C 266.368 131.507,259.908 135.781,258.783 136.293 C 258.287 136.518,257.524 137.009,257.088 137.383 C 256.595 137.804,256.155 138.026,255.928 137.966 C 255.673 137.900,255.595 137.956,255.671 138.152 C 255.730 138.307,255.715 138.424,255.637 138.413 C 255.123 138.336,254.903 138.448,255.196 138.637 C 255.361 138.744,255.401 138.832,255.286 138.833 C 255.171 138.835,254.956 138.725,254.809 138.588 C 254.589 138.384,254.565 138.410,254.676 138.737 C 254.771 139.015,254.662 138.955,254.314 138.538 C 253.963 138.116,254.106 138.520,254.802 139.917 C 256.018 142.358,255.976 142.533,254.693 140.375 C 253.840 138.941,246.091 130.726,246.839 132.050 C 246.940 132.227,248.458 133.801,250.214 135.547 C 251.970 137.294,253.406 138.877,253.406 139.066 C 253.406 139.255,253.483 139.457,253.576 139.515 C 253.670 139.573,253.939 140.149,254.175 140.796 C 254.506 141.703,254.965 142.352,256.185 143.636 C 257.054 144.552,257.769 145.438,257.774 145.605 C 257.778 145.772,257.903 146.085,258.051 146.301 C 258.199 146.517,258.377 146.929,258.447 147.217 C 258.517 147.506,258.888 148.208,259.272 148.779 C 259.656 149.349,259.971 149.874,259.971 149.945 C 259.975 150.534,261.398 153.346,261.939 153.835 C 262.254 154.120,262.357 154.451,262.357 155.175 C 262.357 157.005,263.080 159.251,263.984 160.228 C 264.526 160.814,264.545 160.906,264.545 162.947 C 264.545 165.982,265.353 168.669,266.465 169.329 C 266.664 169.447,266.735 170.064,266.740 171.716 C 266.744 172.941,266.875 174.525,267.031 175.236 C 267.188 175.947,267.319 176.916,267.323 177.388 C 267.349 180.597,269.945 183.344,273.595 184.026 C 276.073 184.489,358.874 184.401,360.716 183.933 C 366.103 182.564,368.788 176.634,366.300 171.598 L 365.589 170.161 365.589 161.980 C 365.589 155.062,365.540 153.635,365.271 152.733 C 364.644 150.629,364.338 149.924,363.775 149.282 L 363.202 148.630 363.197 144.280 C 363.190 139.058,362.396 135.654,361.186 135.654 C 361.092 135.654,361.014 135.474,361.014 135.253 C 361.014 135.033,360.931 134.697,360.830 134.507 C 360.728 134.318,360.482 133.734,360.283 133.211 C 360.083 132.688,359.674 131.989,359.373 131.657 C 358.940 131.180,358.826 130.861,358.826 130.122 C 358.826 128.293,358.021 125.425,357.128 124.072 C 356.859 123.664,356.638 123.137,356.638 122.900 C 356.638 122.030,355.815 119.739,355.142 118.740 C 354.614 117.955,354.451 117.506,354.451 116.840 C 354.451 115.142,353.529 112.463,352.685 111.705 C 352.452 111.496,352.263 111.159,352.263 110.956 C 352.263 110.753,352.181 110.431,352.081 110.241 C 351.981 110.051,351.670 109.384,351.390 108.758 C 351.110 108.133,350.563 107.284,350.174 106.871 C 349.490 106.145,348.372 104.392,347.525 102.715 C 347.299 102.267,346.795 101.483,346.406 100.973 C 345.876 100.279,345.699 99.852,345.699 99.275 C 345.699 98.530,345.399 97.330,344.754 95.489 C 344.533 94.860,343.871 94.015,342.436 92.533 C 341.332 91.392,340.335 90.357,340.222 90.232 C 339.593 89.540,338.940 88.466,338.464 87.339 C 338.168 86.638,337.658 85.726,337.330 85.312 C 337.002 84.899,336.475 83.995,336.159 83.304 C 335.246 81.311,333.963 79.671,330.896 76.579 C 329.323 74.993,327.993 73.516,327.940 73.297 C 327.848 72.917,327.842 72.918,327.820 73.319 M220.786 116.458 C 220.786 116.594,222.004 117.197,222.095 117.107 C 222.138 117.063,221.861 116.879,221.479 116.697 C 221.098 116.515,220.786 116.407,220.786 116.458 M225.576 118.025 C 225.781 118.209,226.952 118.747,226.952 118.658 C 226.952 118.543,225.849 117.951,225.636 117.951 C 225.557 117.951,225.530 117.985,225.576 118.025 M227.151 118.844 C 227.151 118.981,228.369 119.584,228.460 119.493 C 228.503 119.450,228.226 119.266,227.844 119.084 C 227.463 118.902,227.151 118.794,227.151 118.844 M229.502 119.941 C 229.975 120.156,230.870 120.642,231.491 121.021 C 232.112 121.400,232.889 121.763,233.217 121.828 C 233.614 121.906,233.503 121.818,232.886 121.565 C 232.376 121.356,231.705 121.006,231.395 120.788 C 230.622 120.243,229.211 119.542,228.899 119.547 C 228.758 119.549,229.029 119.727,229.502 119.941 M236.523 123.371 C 237.105 124.519,237.537 125.043,238.429 125.685 C 239.412 126.391,239.954 126.668,239.186 126.071 C 237.793 124.988,237.241 124.396,236.781 123.489 C 236.513 122.959,236.249 122.526,236.194 122.526 C 236.138 122.526,236.286 122.907,236.523 123.371 M243.262 128.681 C 243.536 128.914,244.380 129.706,245.138 130.440 L 246.516 131.775 245.456 130.582 C 244.873 129.925,244.029 129.133,243.580 128.822 C 243.132 128.510,242.989 128.447,243.262 128.681 M361.808 138.140 C 361.808 138.250,361.630 138.046,361.411 137.688 C 360.897 136.843,360.897 136.567,361.412 137.345 C 361.630 137.673,361.808 138.031,361.808 138.140 M362.577 140.726 L 362.562 141.522 362.392 140.656 C 362.298 140.179,362.170 139.597,362.107 139.363 C 362.009 138.997,362.036 139.008,362.292 139.433 C 362.457 139.707,362.585 140.288,362.577 140.726 M265.617 165.589 C 265.715 166.025,265.696 166.106,265.549 165.888 C 265.438 165.724,265.345 165.418,265.344 165.208 C 265.340 164.699,265.453 164.858,265.617 165.589 M267.467 172.800 C 267.417 172.991,267.376 172.834,267.376 172.452 C 267.376 172.069,267.417 171.912,267.467 172.103 C 267.517 172.295,267.517 172.608,267.467 172.800 M366.528 176.178 C 366.482 176.481,366.443 176.280,366.442 175.733 C 366.440 175.186,366.478 174.939,366.525 175.184 C 366.572 175.428,366.573 175.876,366.528 176.178 M365.977 178.537 C 365.732 179.014,365.343 179.563,365.113 179.757 C 364.703 180.102,364.701 180.101,365.019 179.712 C 365.473 179.156,366.181 177.710,366.209 177.283 C 366.230 176.957,366.240 176.958,366.328 177.299 C 366.380 177.503,366.223 178.060,365.977 178.537 " stroke="none" fill="#fa2c05" fill-rule="evenodd"></path><path id="path2" d="M192.477 13.078 C 196.762 13.108,203.833 13.108,208.190 13.078 C 212.547 13.048,209.040 13.024,200.398 13.024 C 191.755 13.024,188.191 13.048,192.477 13.078 M146.594 21.684 C 146.430 21.792,145.669 22.070,144.903 22.301 C 144.137 22.532,143.018 22.969,142.417 23.272 C 141.815 23.575,140.651 24.023,139.831 24.267 C 139.010 24.511,137.657 25.053,136.824 25.472 C 135.990 25.891,134.568 26.423,133.662 26.654 C 132.757 26.885,131.513 27.329,130.897 27.640 C 130.280 27.951,129.018 28.497,128.091 28.853 C 127.163 29.210,126.047 29.727,125.609 30.004 C 125.172 30.281,124.142 30.791,123.322 31.137 C 122.501 31.484,121.830 31.862,121.830 31.979 C 121.830 32.095,121.748 32.264,121.649 32.355 C 121.544 32.452,121.528 32.417,121.611 32.273 C 121.815 31.918,121.595 31.963,120.721 32.454 C 120.301 32.690,120.002 32.958,120.058 33.048 C 120.114 33.139,120.033 33.164,119.877 33.104 C 119.380 32.913,116.447 34.466,116.658 34.809 C 116.711 34.893,116.598 35.084,116.408 35.234 C 116.095 35.479,116.088 35.472,116.335 35.157 C 116.889 34.449,116.216 34.838,115.357 35.720 C 114.301 36.806,113.575 37.204,111.586 37.787 C 109.486 38.404,105.832 40.515,106.104 40.955 C 106.160 41.046,106.009 41.289,105.767 41.495 C 105.401 41.807,105.373 41.811,105.597 41.522 C 106.324 40.583,105.320 41.401,103.213 43.464 C 101.139 45.494,100.674 45.845,99.119 46.559 C 97.113 47.480,96.488 48.006,95.639 49.489 C 95.307 50.070,94.865 50.651,94.658 50.780 C 94.451 50.910,94.281 51.089,94.281 51.178 C 94.281 51.268,94.385 51.277,94.511 51.199 C 94.650 51.113,94.687 51.145,94.604 51.278 C 94.529 51.400,94.344 51.452,94.194 51.394 C 93.614 51.172,92.465 52.086,88.911 55.598 C 86.887 57.598,84.477 59.868,83.555 60.642 C 82.633 61.416,81.304 62.745,80.602 63.595 C 79.900 64.446,77.141 67.335,74.472 70.015 C 69.353 75.155,68.409 76.265,66.955 78.856 C 66.459 79.739,65.647 80.938,65.150 81.520 C 63.988 82.881,63.995 83.070,65.166 81.941 C 65.671 81.453,65.993 81.234,65.880 81.454 C 65.636 81.932,65.791 82.941,66.110 82.950 C 66.477 82.960,67.342 83.817,67.621 84.448 C 67.808 84.870,68.248 85.211,69.196 85.671 C 69.985 86.052,71.213 86.937,72.263 87.879 C 73.225 88.743,74.964 90.017,76.126 90.709 C 77.289 91.402,78.918 92.563,79.746 93.290 C 80.575 94.017,82.238 95.263,83.441 96.059 C 86.055 97.789,90.588 101.202,92.775 103.087 C 93.643 103.834,95.624 105.289,97.179 106.321 C 98.733 107.352,101.523 109.304,103.379 110.659 C 105.234 112.014,107.326 113.508,108.026 113.980 C 111.162 116.093,119.118 121.869,121.530 123.785 C 122.349 124.436,123.960 125.598,125.110 126.369 C 126.260 127.139,127.872 128.277,128.692 128.897 C 129.513 129.517,131.150 130.669,132.330 131.457 C 134.907 133.176,139.281 136.657,139.876 137.462 C 140.111 137.780,140.421 138.041,140.565 138.041 C 140.708 138.041,140.825 138.124,140.825 138.226 C 140.825 138.328,141.003 138.468,141.219 138.537 C 141.436 138.605,141.592 138.768,141.567 138.898 C 141.542 139.028,141.630 139.113,141.763 139.087 C 141.900 139.061,141.957 139.165,141.894 139.328 C 141.814 139.536,141.900 139.594,142.201 139.536 C 142.555 139.468,142.587 139.512,142.417 139.830 C 142.283 140.080,142.283 140.246,142.416 140.328 C 142.616 140.452,142.695 140.301,142.625 139.930 C 142.604 139.821,142.697 139.840,142.832 139.972 C 143.025 140.162,143.017 140.285,142.796 140.561 C 142.597 140.809,142.700 140.780,143.154 140.462 C 143.505 140.216,144.027 139.727,144.314 139.376 C 144.622 138.999,144.747 138.917,144.619 139.176 C 144.499 139.417,143.888 140.174,143.260 140.858 C 142.435 141.757,142.295 141.978,142.755 141.656 C 143.593 141.069,144.692 139.773,145.402 138.534 C 146.015 137.464,146.592 136.882,147.395 136.524 C 148.702 135.941,150.595 133.336,150.289 132.540 C 150.228 132.381,150.253 132.298,150.343 132.354 C 150.434 132.409,150.698 132.117,150.930 131.704 C 151.697 130.340,153.385 128.957,155.460 127.994 C 157.214 127.180,157.600 126.891,159.796 124.744 L 162.208 122.387 167.167 119.947 C 169.895 118.606,172.726 117.342,173.459 117.139 C 174.651 116.808,179.156 114.799,178.754 114.778 C 178.664 114.773,178.409 114.867,178.185 114.986 C 177.888 115.145,177.719 115.142,177.552 114.974 C 177.381 114.802,177.419 114.781,177.705 114.890 C 177.969 114.991,178.042 114.965,177.944 114.805 C 177.851 114.654,177.908 114.615,178.110 114.693 C 178.280 114.758,178.419 114.709,178.419 114.584 C 178.419 114.421,178.527 114.415,178.803 114.563 C 179.425 114.896,179.426 114.807,178.805 114.128 C 178.483 113.775,178.220 113.408,178.220 113.311 C 178.220 113.214,178.096 113.183,177.944 113.241 C 177.746 113.317,177.698 113.230,177.776 112.933 C 177.849 112.653,177.811 112.564,177.657 112.659 C 177.504 112.754,177.472 112.687,177.560 112.459 C 177.659 112.201,177.622 112.159,177.408 112.288 C 177.183 112.424,177.172 112.401,177.357 112.171 C 177.594 111.878,177.039 110.892,176.751 111.096 C 176.682 111.145,176.702 111.092,176.795 110.978 C 177.014 110.713,176.583 109.314,175.695 107.409 C 174.925 105.758,174.382 104.102,173.455 100.583 C 173.115 99.290,172.396 97.022,171.858 95.543 C 171.319 94.064,170.558 91.734,170.165 90.365 C 169.772 88.996,169.104 86.964,168.680 85.849 C 168.256 84.734,167.537 82.532,167.081 80.955 C 166.625 79.378,165.911 77.189,165.493 76.090 C 165.076 74.991,164.580 73.555,164.392 72.899 C 164.204 72.243,163.002 68.528,161.721 64.644 C 160.441 60.761,159.192 56.822,158.946 55.893 C 158.701 54.963,157.212 50.219,155.637 45.351 C 154.061 40.482,152.421 35.380,151.992 34.013 C 150.781 30.160,149.129 25.588,148.842 25.297 C 148.611 25.062,148.565 24.929,148.590 24.558 C 148.603 24.364,148.019 23.869,147.777 23.869 C 147.607 23.869,147.617 23.773,147.813 23.532 C 148.048 23.242,148.045 23.220,147.787 23.371 C 147.530 23.523,147.526 23.501,147.762 23.211 C 148.040 22.868,147.901 22.791,147.049 22.819 C 146.917 22.824,146.815 22.771,146.824 22.702 C 146.886 22.206,146.755 22.062,146.345 22.174 C 145.930 22.288,145.925 22.279,146.278 22.060 C 146.591 21.866,146.705 21.888,146.924 22.188 C 147.071 22.389,147.190 22.451,147.190 22.327 C 147.190 22.203,147.099 22.046,146.988 21.977 C 146.877 21.908,146.838 21.769,146.901 21.667 C 147.045 21.433,146.970 21.437,146.594 21.684 M97.464 47.800 C 97.464 47.834,97.173 48.125,96.818 48.446 L 96.171 49.030 96.755 48.384 C 97.300 47.781,97.464 47.646,97.464 47.800 M309.501 54.981 C 309.620 55.099,309.824 55.200,309.955 55.205 C 310.087 55.210,310.175 55.312,310.152 55.430 C 310.129 55.549,310.279 55.799,310.485 55.986 C 310.809 56.279,310.854 56.283,310.814 56.014 C 310.751 55.579,309.950 54.765,309.587 54.765 C 309.371 54.765,309.346 54.826,309.501 54.981 M311.487 56.750 C 311.487 56.785,311.778 57.076,312.133 57.397 L 312.780 57.981 312.196 57.335 C 311.651 56.732,311.487 56.597,311.487 56.750 M330.980 78.071 C 331.351 78.454,331.699 78.767,331.754 78.767 C 331.809 78.767,331.550 78.454,331.179 78.071 C 330.807 77.688,330.459 77.374,330.404 77.374 C 330.350 77.374,330.608 77.688,330.980 78.071 M215.067 112.519 C 215.259 112.569,215.415 112.698,215.415 112.806 C 215.415 112.914,215.514 112.941,215.635 112.866 C 215.904 112.700,215.469 112.378,215.017 112.408 C 214.806 112.422,214.820 112.455,215.067 112.519 M149.180 134.722 C 149.180 134.756,148.889 135.047,148.533 135.368 L 147.887 135.952 148.471 135.306 C 149.015 134.703,149.180 134.568,149.180 134.722 M37.892 135.654 C 37.816 135.998,37.796 136.321,37.846 136.371 C 37.897 136.422,37.996 136.177,38.066 135.828 C 38.231 134.999,38.071 134.838,37.892 135.654 M132.518 170.065 C 132.518 170.448,132.558 170.604,132.609 170.413 C 132.659 170.221,132.659 169.908,132.609 169.717 C 132.558 169.525,132.518 169.682,132.518 170.065 " stroke="none" fill="#9ccc04" fill-rule="evenodd"></path><path id="path3" d="M181.909 12.748 C 180.301 12.988,179.492 13.265,178.319 13.979 C 177.383 14.549,177.131 14.599,174.043 14.837 C 170.566 15.104,169.131 15.430,167.678 16.282 C 166.805 16.794,166.672 16.811,162.407 16.930 C 156.774 17.088,156.272 17.191,153.139 18.824 C 152.855 18.972,151.840 19.230,150.883 19.397 C 149.071 19.713,148.372 19.989,146.674 21.062 C 146.116 21.414,145.137 21.839,144.499 22.006 C 143.861 22.172,142.748 22.607,142.024 22.971 C 141.301 23.335,140.041 23.834,139.226 24.078 C 138.410 24.323,137.116 24.863,136.350 25.279 C 135.541 25.718,134.333 26.163,133.466 26.343 C 132.645 26.513,131.213 27.023,130.283 27.476 C 129.354 27.928,128.100 28.468,127.499 28.674 C 126.897 28.881,125.909 29.355,125.303 29.728 C 124.697 30.100,123.712 30.598,123.115 30.834 C 122.517 31.069,121.313 31.646,120.438 32.116 C 119.562 32.586,118.399 33.136,117.852 33.339 C 117.180 33.587,116.372 34.167,115.365 35.124 C 113.613 36.789,113.356 36.940,111.454 37.415 C 108.705 38.102,106.865 39.324,103.232 42.876 C 100.501 45.546,100.110 45.832,98.214 46.541 C 96.987 47.000,96.022 47.858,95.433 49.014 C 94.798 50.258,94.272 50.879,93.741 51.012 C 92.787 51.252,91.753 52.116,88.567 55.340 C 84.890 59.060,84.493 59.431,82.832 60.703 C 82.169 61.211,81.234 62.149,80.754 62.787 C 80.274 63.426,77.408 66.455,74.385 69.518 C 68.830 75.145,67.880 76.301,66.405 79.222 C 66.063 79.902,65.561 80.771,65.291 81.154 L 64.801 81.850 65.427 81.154 C 65.771 80.771,66.459 79.736,66.955 78.854 C 68.412 76.262,69.356 75.152,74.472 70.015 C 77.141 67.335,79.900 64.446,80.602 63.595 C 81.304 62.745,82.633 61.415,83.555 60.640 C 84.477 59.865,86.932 57.556,89.010 55.509 C 91.282 53.272,93.067 51.676,93.486 51.508 C 94.453 51.120,95.007 50.594,95.672 49.432 C 96.487 48.008,97.130 47.472,99.119 46.559 C 100.674 45.845,101.139 45.494,103.213 43.464 C 105.320 41.401,106.324 40.583,105.597 41.522 C 105.370 41.816,105.395 41.812,105.764 41.498 C 106.004 41.293,106.181 41.034,106.158 40.921 C 106.135 40.807,106.602 40.371,107.195 39.950 C 108.267 39.189,108.749 38.985,108.491 39.403 C 108.396 39.557,108.481 39.555,108.778 39.396 C 109.261 39.137,109.346 38.942,108.901 39.113 C 108.737 39.176,108.603 39.175,108.603 39.110 C 108.603 38.893,110.088 38.237,111.586 37.792 C 113.580 37.201,114.303 36.803,115.357 35.720 C 116.216 34.838,116.889 34.449,116.335 35.157 C 116.086 35.473,116.094 35.480,116.415 35.228 C 116.609 35.075,116.721 34.905,116.665 34.848 C 116.532 34.715,116.949 34.212,117.192 34.212 C 117.294 34.212,117.317 34.310,117.243 34.431 C 117.148 34.584,117.233 34.582,117.529 34.424 C 118.013 34.165,118.098 33.969,117.653 34.140 C 117.489 34.203,117.355 34.207,117.355 34.148 C 117.355 33.938,119.625 33.008,119.890 33.109 C 120.038 33.166,120.114 33.139,120.058 33.048 C 120.002 32.958,120.301 32.690,120.721 32.454 C 121.595 31.963,121.815 31.918,121.611 32.273 C 121.528 32.417,121.544 32.452,121.649 32.355 C 121.748 32.264,121.830 32.095,121.830 31.979 C 121.830 31.862,122.501 31.484,123.322 31.137 C 124.142 30.791,125.172 30.281,125.609 30.004 C 126.047 29.727,127.163 29.210,128.091 28.853 C 129.018 28.497,130.280 27.951,130.897 27.640 C 131.513 27.329,132.757 26.885,133.662 26.654 C 134.568 26.423,135.990 25.891,136.824 25.472 C 137.657 25.053,139.010 24.511,139.831 24.267 C 140.651 24.023,141.820 23.573,142.427 23.266 C 143.035 22.960,144.064 22.556,144.715 22.369 C 145.365 22.182,146.154 21.898,146.466 21.739 C 146.779 21.579,146.979 21.540,146.911 21.651 C 146.842 21.761,146.877 21.908,146.988 21.977 C 147.099 22.046,147.190 22.203,147.190 22.327 C 147.190 22.451,147.071 22.389,146.924 22.188 C 146.705 21.888,146.591 21.866,146.278 22.060 C 145.925 22.279,145.930 22.288,146.345 22.174 C 146.755 22.062,146.886 22.206,146.824 22.702 C 146.815 22.771,146.917 22.824,147.049 22.819 C 147.901 22.791,148.040 22.868,147.762 23.211 C 147.526 23.501,147.530 23.523,147.787 23.371 C 148.045 23.220,148.048 23.242,147.813 23.532 C 147.617 23.773,147.607 23.869,147.777 23.869 C 148.175 23.869,148.583 24.365,148.583 24.849 C 148.583 24.951,148.699 25.152,148.842 25.297 C 149.129 25.588,150.781 30.160,151.992 34.013 C 152.421 35.380,154.061 40.482,155.637 45.351 C 157.212 50.219,158.701 54.963,158.946 55.893 C 159.192 56.822,160.441 60.761,161.721 64.644 C 163.002 68.528,164.204 72.243,164.392 72.899 C 164.580 73.555,165.076 74.991,165.493 76.090 C 165.911 77.189,166.625 79.378,167.081 80.955 C 167.537 82.532,168.256 84.734,168.680 85.849 C 169.104 86.964,169.772 88.996,170.165 90.365 C 170.558 91.734,171.319 94.064,171.858 95.543 C 172.396 97.022,173.115 99.290,173.455 100.583 C 174.382 104.102,174.925 105.758,175.695 107.409 C 176.583 109.314,177.014 110.713,176.795 110.978 C 176.702 111.092,176.682 111.145,176.751 111.096 C 177.039 110.892,177.594 111.878,177.357 112.171 C 177.172 112.401,177.183 112.424,177.408 112.288 C 177.622 112.159,177.659 112.201,177.560 112.459 C 177.472 112.687,177.504 112.754,177.657 112.659 C 177.811 112.564,177.849 112.653,177.776 112.933 C 177.698 113.230,177.746 113.317,177.944 113.241 C 178.096 113.183,178.220 113.214,178.220 113.311 C 178.220 113.408,178.483 113.775,178.805 114.128 C 179.426 114.807,179.425 114.896,178.803 114.563 C 178.527 114.415,178.419 114.421,178.419 114.584 C 178.419 114.709,178.280 114.758,178.110 114.693 C 177.908 114.615,177.851 114.654,177.944 114.805 C 178.042 114.965,177.969 114.991,177.705 114.890 C 177.419 114.781,177.381 114.802,177.552 114.974 C 177.723 115.147,177.886 115.146,178.215 114.970 C 178.455 114.842,178.692 114.776,178.740 114.825 C 178.911 114.996,177.645 115.403,177.405 115.254 C 177.260 115.165,177.215 115.188,177.293 115.314 C 177.364 115.429,177.281 115.577,177.108 115.643 C 176.629 115.827,176.495 115.781,176.827 115.546 C 177.093 115.359,177.093 115.344,176.827 115.417 C 176.663 115.461,176.529 115.607,176.529 115.740 C 176.529 116.042,175.144 116.671,173.433 117.146 C 172.715 117.345,169.895 118.606,167.167 119.947 L 162.208 122.387 159.796 124.744 C 157.600 126.891,157.214 127.180,155.460 127.994 C 153.607 128.854,151.660 130.360,151.136 131.338 C 150.795 131.976,151.567 131.429,152.617 130.289 C 153.229 129.625,153.962 129.089,154.702 128.766 C 155.329 128.492,156.253 128.086,156.754 127.865 C 157.367 127.594,158.466 126.660,160.116 125.008 C 162.129 122.992,162.784 122.461,163.780 122.039 C 164.447 121.757,165.395 121.301,165.888 121.027 C 166.380 120.753,167.364 120.258,168.076 119.926 C 168.787 119.594,170.047 118.972,170.875 118.543 C 171.704 118.114,172.999 117.620,173.753 117.445 C 174.506 117.270,175.932 116.740,176.920 116.268 C 177.908 115.795,178.941 115.344,179.214 115.267 C 179.488 115.189,180.428 114.799,181.303 114.400 L 182.894 113.675 199.088 113.621 C 217.503 113.559,216.196 113.450,219.105 115.280 C 221.629 116.867,222.238 117.149,223.841 117.473 C 225.283 117.765,227.803 118.890,232.324 121.263 C 232.817 121.522,233.796 121.835,234.500 121.959 C 235.925 122.210,236.262 122.450,236.866 123.648 C 237.417 124.742,238.501 125.641,241.345 127.363 C 243.526 128.684,244.053 129.137,248.314 133.366 C 250.850 135.883,253.126 138.115,253.372 138.327 L 253.820 138.713 253.524 138.143 C 253.361 137.829,253.263 137.515,253.306 137.446 C 253.349 137.376,251.314 135.266,248.784 132.757 C 246.254 130.248,244.301 128.352,244.444 128.543 C 244.586 128.735,244.614 128.891,244.504 128.891 C 244.252 128.891,243.828 128.391,243.965 128.255 C 244.021 128.198,243.914 128.028,243.726 127.875 C 243.440 127.643,243.411 127.642,243.550 127.873 C 243.664 128.063,243.630 128.118,243.439 128.054 C 243.287 128.003,243.173 127.769,243.186 127.535 C 243.199 127.301,243.130 127.159,243.034 127.219 C 242.937 127.278,242.916 127.422,242.988 127.538 C 243.063 127.660,243.001 127.710,242.842 127.657 C 242.690 127.607,242.566 127.468,242.566 127.350 C 242.566 127.231,242.484 127.060,242.385 126.968 C 242.278 126.870,242.269 126.915,242.363 127.077 C 242.472 127.266,242.436 127.320,242.245 127.251 C 242.094 127.196,241.992 127.047,242.021 126.921 C 242.049 126.795,241.938 126.640,241.773 126.577 C 241.609 126.514,241.523 126.383,241.583 126.287 C 241.643 126.190,241.538 126.170,241.350 126.242 C 241.100 126.338,241.052 126.302,241.172 126.109 C 241.287 125.923,241.258 125.893,241.075 126.007 C 240.804 126.174,241.312 126.703,241.742 126.703 C 241.849 126.703,241.885 126.754,241.822 126.817 C 241.646 126.993,240.450 126.312,240.576 126.108 C 240.637 126.009,240.484 125.822,240.234 125.692 C 239.985 125.563,239.380 125.133,238.890 124.738 C 238.400 124.342,237.932 124.040,237.850 124.066 C 237.768 124.093,237.551 123.869,237.370 123.569 C 237.188 123.269,236.867 122.755,236.658 122.427 C 236.308 121.880,236.329 121.888,236.907 122.526 C 237.254 122.909,237.443 123.036,237.328 122.808 C 236.996 122.153,236.552 121.879,235.696 121.802 C 234.593 121.703,232.223 120.885,232.223 120.603 C 232.223 120.476,232.141 120.297,232.042 120.206 C 231.937 120.109,231.921 120.144,232.004 120.288 C 232.178 120.592,232.024 120.604,231.508 120.328 C 231.293 120.213,231.170 120.035,231.233 119.933 C 231.298 119.827,231.200 119.803,231.007 119.877 C 230.777 119.965,230.712 119.933,230.808 119.778 C 230.904 119.622,230.839 119.590,230.609 119.678 C 230.379 119.766,230.314 119.734,230.410 119.579 C 230.506 119.423,230.441 119.391,230.211 119.479 C 229.981 119.567,229.917 119.535,230.013 119.380 C 230.102 119.234,230.052 119.189,229.875 119.257 C 229.499 119.401,227.289 118.410,227.440 118.165 C 227.506 118.058,227.384 117.877,227.169 117.762 C 226.578 117.446,226.382 117.526,226.952 117.852 C 227.225 118.008,227.360 118.136,227.250 118.136 C 226.979 118.136,226.006 117.570,226.256 117.557 C 226.365 117.552,226.320 117.459,226.156 117.352 C 225.992 117.244,225.589 117.206,225.261 117.268 C 224.932 117.329,224.767 117.306,224.894 117.217 C 225.027 117.124,224.764 117.056,224.273 117.056 C 222.983 117.056,220.293 115.645,220.290 114.968 C 220.289 114.675,220.391 114.491,220.537 114.520 C 220.674 114.547,220.786 114.480,220.786 114.371 C 220.786 114.112,220.447 114.114,220.286 114.374 C 220.218 114.485,220.083 114.528,219.987 114.468 C 219.891 114.409,219.847 114.542,219.890 114.764 C 219.956 115.110,219.911 115.138,219.581 114.962 C 219.124 114.717,219.064 114.532,219.495 114.698 C 219.710 114.780,219.761 114.722,219.673 114.494 C 219.606 114.318,219.471 114.223,219.375 114.283 C 219.278 114.343,219.259 114.230,219.333 114.033 C 219.451 113.719,219.427 113.708,219.134 113.946 C 218.951 114.095,218.859 114.310,218.929 114.424 C 219.000 114.538,218.962 114.573,218.845 114.500 C 218.729 114.428,218.663 114.213,218.700 114.022 C 218.736 113.831,218.773 113.600,218.781 113.509 C 218.790 113.418,219.103 113.533,219.477 113.765 C 219.907 114.030,220.204 114.109,220.284 113.980 C 220.354 113.867,220.249 113.767,220.052 113.759 C 219.832 113.749,219.791 113.703,219.947 113.640 C 220.087 113.584,220.420 113.681,220.687 113.856 C 221.251 114.226,221.210 113.831,220.606 113.081 C 220.325 112.732,220.324 112.715,220.601 112.928 C 220.841 113.112,220.969 113.113,221.148 112.934 C 221.328 112.755,221.382 112.756,221.382 112.939 C 221.382 113.070,221.277 113.178,221.149 113.178 C 221.020 113.178,221.118 113.393,221.365 113.656 L 221.814 114.134 221.399 114.266 C 221.171 114.339,220.985 114.492,220.985 114.608 C 220.985 114.741,221.090 114.730,221.274 114.577 C 221.434 114.445,221.649 114.390,221.754 114.454 C 221.912 114.552,221.922 114.160,221.772 113.774 C 221.751 113.720,221.746 113.601,221.762 113.511 C 221.777 113.421,221.716 113.392,221.626 113.448 C 221.536 113.504,221.462 113.248,221.462 112.879 C 221.462 112.510,221.534 112.253,221.621 112.307 C 221.709 112.361,221.780 112.221,221.780 111.996 C 221.780 111.771,221.885 111.586,222.012 111.586 C 222.140 111.586,222.184 111.526,222.111 111.453 C 222.038 111.380,222.117 111.166,222.288 110.978 C 222.458 110.790,222.636 110.216,222.685 109.702 C 222.733 109.188,222.810 108.706,222.857 108.631 C 222.903 108.556,222.996 108.127,223.063 107.677 C 223.243 106.467,223.832 104.577,224.727 102.337 C 226.399 98.148,229.854 87.133,230.931 82.551 C 231.175 81.514,231.852 79.453,232.436 77.971 C 233.019 76.489,233.783 74.205,234.133 72.894 C 234.483 71.584,235.160 69.635,235.638 68.562 C 236.117 67.489,236.780 65.654,237.112 64.484 C 237.444 63.314,238.914 58.687,240.379 54.202 C 243.133 45.768,245.237 39.054,246.130 35.841 C 246.413 34.823,247.096 32.854,247.647 31.465 C 248.199 30.077,248.671 28.807,248.697 28.642 C 248.722 28.478,248.813 28.232,248.899 28.095 C 248.984 27.959,248.981 27.845,248.893 27.844 C 248.804 27.842,248.835 27.775,248.960 27.695 C 249.086 27.614,249.220 27.325,249.258 27.051 C 249.297 26.778,249.552 26.297,249.826 25.982 C 250.099 25.668,250.301 25.332,250.273 25.236 C 250.246 25.141,250.313 25.062,250.423 25.062 C 250.532 25.062,250.622 24.844,250.622 24.577 C 250.622 24.310,250.715 24.033,250.830 23.962 C 250.972 23.874,250.963 23.743,250.802 23.548 C 250.608 23.314,250.630 23.288,250.924 23.401 C 251.172 23.496,251.239 23.466,251.140 23.306 C 251.054 23.168,251.117 23.073,251.294 23.073 C 251.715 23.073,251.872 23.407,251.516 23.543 C 251.352 23.606,251.225 23.772,251.234 23.912 C 251.246 24.112,251.271 24.113,251.350 23.918 C 251.405 23.782,251.555 23.669,251.682 23.668 C 251.810 23.667,252.024 23.431,252.157 23.144 C 252.291 22.856,252.347 22.673,252.283 22.738 C 252.218 22.802,252.030 22.719,251.864 22.554 C 251.639 22.328,251.619 22.195,251.788 22.026 C 251.957 21.857,252.014 21.862,252.014 22.046 C 252.014 22.226,252.115 22.237,252.392 22.089 C 252.920 21.807,258.136 23.853,257.894 24.248 C 257.854 24.313,258.059 24.376,258.349 24.388 C 259.007 24.415,261.626 25.592,261.496 25.802 C 261.444 25.888,261.593 25.969,261.829 25.983 C 263.883 26.109,268.315 27.578,268.030 28.039 C 267.969 28.137,268.025 28.282,268.153 28.361 C 268.298 28.451,268.332 28.419,268.244 28.275 C 268.045 27.954,268.187 27.984,269.204 28.478 C 269.694 28.716,270.050 28.984,269.995 29.073 C 269.940 29.162,270.025 29.185,270.183 29.124 C 270.547 28.984,272.555 29.985,272.404 30.231 C 272.342 30.331,272.495 30.512,272.744 30.633 C 273.178 30.843,273.181 30.839,272.811 30.543 C 272.250 30.094,272.545 30.162,273.779 30.767 C 274.377 31.061,274.822 31.373,274.768 31.461 C 274.713 31.549,274.799 31.572,274.958 31.510 C 275.324 31.370,276.930 32.175,276.778 32.422 C 276.715 32.523,277.022 32.788,277.459 33.011 C 278.575 33.580,278.760 33.501,277.673 32.919 C 276.553 32.319,276.758 32.272,277.956 32.854 C 278.446 33.092,278.802 33.360,278.747 33.449 C 278.692 33.538,278.800 33.552,278.988 33.480 C 279.218 33.391,279.283 33.424,279.187 33.579 C 279.096 33.726,279.149 33.769,279.334 33.698 C 279.698 33.559,281.307 34.362,281.155 34.607 C 281.093 34.707,281.247 34.888,281.496 35.008 C 281.930 35.219,281.933 35.215,281.563 34.919 C 281.002 34.470,281.297 34.538,282.531 35.143 C 283.129 35.437,283.574 35.749,283.520 35.837 C 283.465 35.925,283.551 35.947,283.710 35.886 C 284.114 35.731,285.678 36.558,285.506 36.836 C 285.427 36.963,285.458 37.003,285.579 36.928 C 285.960 36.693,289.853 38.680,290.602 39.492 L 291.298 40.248 290.303 39.442 C 289.219 38.563,288.435 38.102,288.282 38.255 C 288.229 38.309,288.377 38.414,288.612 38.488 C 288.847 38.563,289.525 39.019,290.119 39.503 C 290.713 39.987,291.198 40.323,291.198 40.250 C 291.198 40.177,291.377 40.279,291.596 40.477 C 292.144 40.973,292.101 41.326,291.550 40.856 C 291.278 40.624,291.200 40.600,291.349 40.794 C 291.483 40.968,291.526 41.192,291.445 41.291 C 291.364 41.391,291.382 41.403,291.484 41.319 C 291.587 41.234,292.030 41.503,292.469 41.915 C 292.909 42.328,293.149 42.509,293.005 42.317 C 292.860 42.126,292.830 41.969,292.940 41.969 C 293.186 41.969,293.617 42.468,293.485 42.600 C 293.432 42.653,293.626 42.914,293.916 43.178 C 294.207 43.443,294.373 43.536,294.286 43.385 C 294.177 43.198,294.214 43.140,294.403 43.203 C 294.555 43.254,294.679 43.392,294.679 43.511 C 294.679 43.629,294.761 43.801,294.860 43.892 C 294.966 43.988,294.981 43.954,294.898 43.809 C 294.820 43.672,294.835 43.560,294.933 43.560 C 295.280 43.560,295.368 43.827,295.125 44.139 C 294.910 44.414,294.921 44.422,295.205 44.200 C 295.573 43.912,297.263 44.436,297.055 44.773 C 296.995 44.869,297.083 44.896,297.250 44.832 C 297.888 44.587,302.518 48.477,302.201 48.991 C 302.133 49.101,302.165 49.137,302.273 49.070 C 302.381 49.003,302.906 49.392,303.440 49.934 C 304.418 50.927,304.490 51.303,303.543 50.472 L 303.033 50.025 303.521 50.578 C 303.789 50.882,304.115 51.090,304.246 51.040 C 304.499 50.942,305.394 51.775,305.222 51.947 C 305.166 52.003,305.314 52.221,305.553 52.430 C 305.791 52.639,305.913 52.686,305.825 52.535 C 305.713 52.346,305.749 52.292,305.939 52.361 C 306.091 52.416,306.195 52.559,306.168 52.678 C 306.141 52.803,306.260 52.841,306.450 52.769 C 306.669 52.685,306.731 52.719,306.636 52.873 C 306.546 53.018,306.597 53.064,306.773 52.996 C 307.224 52.823,309.585 54.065,310.316 54.860 C 310.916 55.513,310.924 55.536,310.393 55.073 C 309.382 54.191,308.768 53.854,308.768 54.182 C 308.768 54.336,308.869 54.424,308.992 54.377 C 309.115 54.329,309.592 54.614,310.053 55.008 C 310.513 55.402,310.890 55.659,310.890 55.579 C 310.890 55.499,311.069 55.595,311.288 55.793 C 311.837 56.290,311.792 56.641,311.238 56.172 L 310.791 55.793 311.171 56.242 C 311.380 56.489,311.595 56.646,311.650 56.592 C 311.810 56.431,312.289 56.915,312.166 57.113 C 312.104 57.213,312.173 57.270,312.317 57.240 C 312.462 57.210,312.562 57.287,312.539 57.410 C 312.516 57.534,312.693 57.803,312.933 58.007 C 313.302 58.321,313.328 58.325,313.100 58.031 C 312.772 57.607,313.127 57.561,313.476 57.981 C 313.612 58.145,313.654 58.279,313.569 58.279 C 313.484 58.279,313.563 58.443,313.744 58.644 C 313.925 58.844,314.029 59.068,313.974 59.141 C 313.919 59.214,313.933 59.230,314.005 59.176 C 314.077 59.123,314.278 59.186,314.452 59.318 C 314.626 59.449,314.500 59.255,314.172 58.885 L 313.575 58.214 314.319 58.766 C 314.728 59.070,315.023 59.383,314.975 59.462 C 314.926 59.540,315.349 60.045,315.915 60.583 C 316.481 61.121,316.777 61.360,316.572 61.114 C 316.367 60.868,316.288 60.666,316.398 60.666 C 316.657 60.666,317.287 61.363,317.151 61.499 C 317.094 61.557,317.205 61.729,317.399 61.881 C 317.720 62.133,317.728 62.127,317.479 61.810 C 317.329 61.619,317.296 61.462,317.405 61.462 C 317.658 61.462,318.081 61.962,317.945 62.098 C 317.888 62.155,318.001 62.326,318.195 62.478 C 318.516 62.730,318.523 62.723,318.275 62.407 C 318.125 62.215,318.092 62.059,318.201 62.059 C 318.453 62.059,318.877 62.559,318.740 62.695 C 318.684 62.751,318.797 62.922,318.991 63.075 C 319.312 63.326,319.319 63.320,319.071 63.003 C 318.920 62.812,318.883 62.655,318.986 62.655 C 319.234 62.655,320.072 63.551,319.944 63.679 C 319.890 63.734,320.135 64.040,320.489 64.361 L 321.134 64.943 320.550 64.296 C 320.228 63.941,320.065 63.650,320.186 63.650 C 320.438 63.650,321.830 65.216,321.830 65.500 C 321.830 65.603,321.673 65.565,321.482 65.415 C 321.167 65.168,321.160 65.175,321.405 65.488 C 321.554 65.678,321.748 65.789,321.835 65.735 C 321.922 65.681,322.270 66.087,322.608 66.636 C 323.272 67.715,323.349 67.929,322.993 67.709 C 322.849 67.620,322.817 67.654,322.907 67.799 C 322.986 67.928,323.120 67.989,323.206 67.937 C 323.291 67.884,323.615 68.106,323.925 68.431 C 324.236 68.755,324.413 69.020,324.319 69.020 C 324.225 69.020,324.355 69.241,324.609 69.512 C 324.863 69.782,325.134 69.963,325.211 69.915 C 325.607 69.671,327.329 72.575,327.117 73.128 C 327.047 73.311,327.090 73.365,327.234 73.276 C 327.388 73.181,327.427 73.271,327.352 73.555 C 327.292 73.786,327.367 74.135,327.520 74.332 C 327.782 74.668,327.791 74.668,327.675 74.337 C 327.608 74.143,328.668 75.128,330.031 76.525 C 333.565 80.146,334.220 80.932,335.132 82.643 C 335.364 83.078,335.554 83.309,335.554 83.156 C 335.554 82.127,333.374 79.264,330.184 76.103 C 328.826 74.757,327.797 73.578,327.797 73.366 C 327.797 73.161,327.712 72.838,327.609 72.648 C 327.505 72.458,327.189 71.820,326.907 71.230 C 326.576 70.540,325.837 69.618,324.832 68.644 C 323.973 67.812,323.069 66.728,322.821 66.236 C 322.062 64.723,321.014 63.571,319.120 62.166 C 318.121 61.425,316.900 60.443,316.406 59.983 C 315.912 59.523,314.822 58.571,313.983 57.867 C 313.145 57.164,312.107 56.124,311.677 55.557 C 310.682 54.243,309.854 53.616,308.322 53.015 C 306.437 52.277,306.044 51.967,302.636 48.526 C 298.958 44.814,298.870 44.744,297.088 44.073 C 295.655 43.534,294.944 43.094,293.699 41.975 C 292.632 41.015,292.408 40.781,291.530 39.705 C 290.703 38.691,289.711 37.985,288.605 37.622 C 288.218 37.495,287.230 37.008,286.408 36.540 C 285.587 36.072,284.472 35.521,283.929 35.314 C 283.387 35.108,282.383 34.597,281.697 34.178 C 281.011 33.759,280.385 33.416,280.305 33.417 C 280.128 33.417,274.751 30.815,273.496 30.122 C 273.003 29.850,272.019 29.360,271.308 29.034 C 269.973 28.422,269.648 28.255,267.628 27.135 C 266.803 26.678,265.882 26.378,264.644 26.165 C 263.523 25.972,262.419 25.631,261.689 25.251 C 261.048 24.917,259.974 24.437,259.302 24.184 C 258.630 23.931,257.354 23.354,256.466 22.901 C 255.578 22.449,254.743 22.079,254.609 22.079 C 254.476 22.079,253.268 21.540,251.925 20.883 C 249.755 19.820,249.242 19.652,247.318 19.373 C 245.594 19.123,244.902 18.921,243.933 18.385 C 241.988 17.309,240.844 17.095,236.400 16.979 C 232.517 16.877,232.392 16.861,231.205 16.295 C 229.378 15.424,228.514 15.159,226.706 14.915 C 225.568 14.762,224.542 14.456,223.371 13.921 C 222.442 13.496,221.278 13.038,220.786 12.902 C 219.703 12.605,183.823 12.462,181.909 12.748 M208.190 13.078 C 203.833 13.108,196.762 13.108,192.477 13.078 C 188.191 13.048,191.755 13.024,200.398 13.024 C 209.040 13.024,212.547 13.048,208.190 13.078 M173.930 15.693 C 174.050 15.887,173.454 16.186,173.285 16.017 C 173.228 15.959,173.291 15.912,173.425 15.912 C 173.559 15.912,173.613 15.823,173.545 15.714 C 173.478 15.604,173.512 15.515,173.621 15.515 C 173.731 15.515,173.870 15.595,173.930 15.693 M254.815 22.948 C 255.020 23.131,256.191 23.670,256.191 23.581 C 256.191 23.466,255.088 22.874,254.875 22.874 C 254.796 22.874,254.770 22.908,254.815 22.948 M279.613 33.946 C 279.751 34.002,279.813 34.128,279.752 34.227 C 279.691 34.325,279.795 34.347,279.983 34.275 C 280.179 34.200,280.274 34.225,280.206 34.334 C 280.142 34.439,280.261 34.524,280.472 34.524 C 280.683 34.524,280.855 34.501,280.855 34.473 C 280.855 34.378,279.685 33.814,279.523 33.830 C 279.435 33.838,279.476 33.891,279.613 33.946 M283.989 36.134 C 284.127 36.190,284.189 36.316,284.128 36.415 C 284.067 36.513,284.171 36.535,284.358 36.463 C 284.588 36.375,284.653 36.407,284.557 36.563 C 284.461 36.718,284.526 36.750,284.756 36.662 C 285.006 36.566,285.054 36.602,284.935 36.795 C 284.826 36.970,284.849 37.010,285.002 36.916 C 285.128 36.838,285.231 36.737,285.231 36.692 C 285.231 36.575,284.091 35.999,283.898 36.018 C 283.811 36.026,283.852 36.079,283.989 36.134 M285.828 37.095 C 285.828 37.229,287.444 38.033,287.534 37.943 C 287.575 37.901,287.209 37.672,286.719 37.434 C 286.229 37.196,285.828 37.043,285.828 37.095 M297.266 45.149 C 297.194 45.266,297.284 45.293,297.486 45.215 C 297.701 45.133,297.779 45.162,297.698 45.294 C 297.624 45.414,297.717 45.493,297.914 45.477 C 298.104 45.462,298.241 45.551,298.218 45.675 C 298.195 45.799,298.327 45.889,298.511 45.874 C 298.696 45.860,298.853 45.982,298.861 46.146 C 298.868 46.310,298.977 46.424,299.103 46.398 C 299.230 46.373,299.651 46.652,300.039 47.019 C 300.428 47.385,300.746 47.624,300.746 47.550 C 300.746 46.935,297.533 44.719,297.266 45.149 M298.989 47.091 C 299.026 47.173,300.219 48.357,301.641 49.723 L 304.227 52.206 301.644 49.574 C 299.198 47.081,298.832 46.739,298.989 47.091 M96.755 48.384 L 96.171 49.030 96.818 48.446 C 97.420 47.902,97.555 47.737,97.402 47.737 C 97.367 47.737,97.077 48.028,96.755 48.384 M316.244 60.418 C 316.290 60.445,316.283 60.511,316.229 60.565 C 316.176 60.618,315.870 60.373,315.550 60.019 L 314.968 59.375 315.564 59.871 C 315.893 60.145,316.198 60.390,316.244 60.418 M326.204 71.561 C 326.325 71.809,326.360 72.114,326.284 72.238 C 326.198 72.376,326.233 72.408,326.374 72.321 C 326.681 72.132,326.664 71.956,326.294 71.495 C 325.998 71.125,325.994 71.128,326.204 71.561 M215.586 112.559 C 215.774 112.678,215.789 112.771,215.635 112.866 C 215.514 112.941,215.415 112.914,215.415 112.806 C 215.415 112.698,215.259 112.569,215.067 112.519 C 214.820 112.455,214.806 112.422,215.017 112.408 C 215.182 112.397,215.437 112.465,215.586 112.559 M191.699 113.121 C 191.400 113.166,190.863 113.167,190.506 113.123 C 190.148 113.079,190.393 113.041,191.049 113.040 C 191.706 113.039,191.998 113.075,191.699 113.121 M203.630 113.127 C 202.235 113.161,199.953 113.161,198.558 113.127 C 197.163 113.093,198.304 113.065,201.094 113.065 C 203.884 113.065,205.025 113.093,203.630 113.127 M220.618 115.147 C 220.455 115.248,220.787 115.523,221.586 115.949 C 222.255 116.305,222.856 116.544,222.921 116.479 C 222.987 116.413,222.930 116.360,222.796 116.360 C 222.662 116.360,222.607 116.272,222.674 116.163 C 222.746 116.047,222.657 116.020,222.454 116.098 C 222.224 116.186,222.159 116.154,222.255 115.998 C 222.351 115.843,222.286 115.811,222.056 115.899 C 221.826 115.987,221.761 115.955,221.857 115.799 C 221.953 115.644,221.888 115.612,221.658 115.700 C 221.428 115.788,221.364 115.756,221.460 115.600 C 221.556 115.445,221.491 115.413,221.261 115.501 C 221.039 115.586,220.967 115.555,221.055 115.413 C 221.231 115.128,220.937 114.950,220.618 115.147 M240.319 125.908 C 240.443 125.908,240.489 125.962,240.422 126.030 C 240.246 126.206,239.086 125.446,238.389 124.698 C 237.951 124.229,238.099 124.305,238.944 124.983 C 239.577 125.491,240.196 125.908,240.319 125.908 M249.032 133.204 C 251.383 135.576,253.144 137.395,252.946 137.247 C 252.467 136.888,244.654 129.102,244.654 128.983 C 244.654 128.796,244.841 128.976,249.032 133.204 M150.681 132.122 C 150.598 132.313,150.451 132.420,150.354 132.360 C 150.258 132.301,150.228 132.381,150.289 132.540 C 150.595 133.336,148.702 135.941,147.395 136.524 C 146.612 136.873,146.034 137.444,145.467 138.428 C 145.180 138.926,144.629 139.736,144.242 140.229 L 143.538 141.124 144.193 140.527 C 144.553 140.199,145.245 139.332,145.731 138.600 C 146.377 137.626,146.789 137.212,147.268 137.054 C 148.629 136.604,149.981 135.214,150.295 133.939 C 150.372 133.624,150.563 133.169,150.719 132.929 C 150.875 132.688,150.964 132.330,150.917 132.133 C 150.837 131.796,150.823 131.796,150.681 132.122 M148.471 135.306 L 147.887 135.952 148.533 135.368 C 148.889 135.047,149.180 134.756,149.180 134.722 C 149.180 134.568,149.015 134.703,148.471 135.306 " stroke="none" fill="#fbf204" fill-rule="evenodd"></path><path id="path4" d="M251.739 22.040 C 251.582 22.295,252.083 22.938,252.283 22.738 C 252.347 22.673,252.291 22.856,252.157 23.144 C 252.024 23.431,251.810 23.667,251.682 23.668 C 251.555 23.669,251.405 23.782,251.350 23.918 C 251.271 24.113,251.246 24.112,251.234 23.912 C 251.225 23.772,251.352 23.606,251.516 23.543 C 251.872 23.407,251.715 23.073,251.294 23.073 C 251.117 23.073,251.054 23.168,251.140 23.306 C 251.239 23.466,251.172 23.496,250.924 23.401 C 250.630 23.288,250.608 23.314,250.802 23.548 C 250.963 23.743,250.972 23.874,250.830 23.962 C 250.715 24.033,250.622 24.310,250.622 24.577 C 250.622 24.844,250.532 25.062,250.423 25.062 C 250.313 25.062,250.246 25.141,250.273 25.236 C 250.301 25.332,250.099 25.668,249.826 25.982 C 249.552 26.297,249.297 26.778,249.258 27.051 C 249.220 27.325,249.100 27.603,248.993 27.670 C 248.885 27.737,248.805 27.849,248.814 27.919 C 248.824 27.989,248.825 28.068,248.817 28.095 C 248.809 28.123,248.768 28.324,248.726 28.543 C 248.684 28.762,248.199 30.077,247.647 31.465 C 247.096 32.854,246.413 34.823,246.130 35.841 C 245.237 39.054,243.133 45.768,240.379 54.202 C 238.914 58.687,237.444 63.314,237.112 64.484 C 236.780 65.654,236.117 67.489,235.638 68.562 C 235.160 69.635,234.483 71.584,234.133 72.894 C 233.783 74.205,233.019 76.489,232.436 77.971 C 231.852 79.453,231.175 81.514,230.931 82.551 C 229.854 87.133,226.399 98.148,224.727 102.337 C 223.832 104.577,223.243 106.467,223.063 107.677 C 222.996 108.127,222.903 108.556,222.857 108.631 C 222.810 108.706,222.733 109.188,222.685 109.702 C 222.636 110.216,222.458 110.790,222.288 110.978 C 222.117 111.166,222.038 111.380,222.111 111.453 C 222.184 111.526,222.140 111.586,222.012 111.586 C 221.885 111.586,221.780 111.771,221.780 111.996 C 221.780 112.221,221.709 112.361,221.621 112.307 C 221.534 112.253,221.462 112.510,221.462 112.879 C 221.462 113.248,221.536 113.504,221.626 113.448 C 221.716 113.392,221.777 113.421,221.762 113.511 C 221.746 113.601,221.751 113.720,221.772 113.774 C 221.922 114.160,221.912 114.552,221.754 114.454 C 221.649 114.390,221.434 114.445,221.274 114.577 C 221.090 114.730,220.985 114.741,220.985 114.608 C 220.985 114.492,221.171 114.339,221.399 114.266 L 221.814 114.134 221.365 113.656 C 221.118 113.393,221.020 113.178,221.149 113.178 C 221.277 113.178,221.382 113.077,221.382 112.954 C 221.382 112.792,221.311 112.790,221.119 112.950 C 220.926 113.110,220.781 113.103,220.577 112.924 C 220.407 112.775,220.421 112.835,220.612 113.078 C 221.212 113.842,221.248 114.224,220.687 113.856 C 220.420 113.681,220.087 113.584,219.947 113.640 C 219.799 113.700,219.852 113.749,220.073 113.759 C 220.283 113.767,220.392 113.837,220.316 113.913 C 220.104 114.124,219.592 114.159,219.592 113.963 C 219.592 113.619,218.845 113.362,218.729 113.665 C 218.653 113.863,218.740 113.923,219.025 113.868 C 219.321 113.811,219.399 113.871,219.314 114.091 C 219.249 114.262,219.284 114.339,219.396 114.270 C 219.504 114.203,219.603 114.243,219.617 114.359 C 219.677 114.869,219.699 114.942,219.835 115.077 C 219.913 115.156,219.940 115.027,219.895 114.790 C 219.849 114.554,219.891 114.409,219.987 114.468 C 220.083 114.528,220.218 114.485,220.286 114.374 C 220.451 114.109,220.786 114.114,220.786 114.383 C 220.786 114.499,220.681 114.529,220.553 114.450 C 220.395 114.352,220.362 114.415,220.451 114.647 C 220.523 114.835,220.502 114.939,220.403 114.878 C 220.305 114.817,220.245 114.924,220.272 115.116 C 220.361 115.772,223.209 117.052,223.980 116.783 C 224.734 116.521,225.053 116.657,224.345 116.940 C 224.083 117.045,224.003 117.137,224.167 117.146 C 224.331 117.154,224.689 117.206,224.963 117.262 C 225.391 117.349,225.405 117.337,225.062 117.179 C 224.742 117.032,224.806 117.002,225.392 117.026 C 225.792 117.043,226.086 117.091,226.045 117.133 C 226.004 117.175,226.504 117.462,227.157 117.771 C 227.810 118.080,228.344 118.382,228.344 118.443 C 228.344 118.505,227.888 118.323,227.330 118.041 C 226.772 117.758,226.279 117.564,226.234 117.609 C 226.072 117.770,230.946 119.954,231.165 119.818 C 231.298 119.736,231.334 119.769,231.253 119.900 C 231.179 120.020,231.293 120.213,231.508 120.328 C 232.024 120.604,232.178 120.592,232.004 120.288 C 231.921 120.144,231.937 120.109,232.042 120.206 C 232.141 120.297,232.223 120.476,232.223 120.603 C 232.223 120.885,234.593 121.703,235.696 121.802 C 236.552 121.879,236.996 122.153,237.328 122.808 C 237.443 123.036,237.257 122.909,236.914 122.526 L 236.291 121.830 236.812 122.626 C 237.099 123.063,237.403 123.403,237.487 123.380 C 237.571 123.358,237.930 123.699,238.283 124.140 C 238.683 124.637,239.036 124.898,239.215 124.829 C 239.374 124.768,239.455 124.797,239.395 124.893 C 239.244 125.138,240.240 125.756,240.514 125.587 C 240.653 125.501,240.682 125.538,240.592 125.685 C 240.489 125.851,240.595 125.894,240.947 125.830 C 241.342 125.759,241.422 125.806,241.327 126.055 C 241.237 126.288,241.279 126.326,241.488 126.200 C 241.721 126.060,241.727 126.084,241.521 126.338 C 241.308 126.601,241.452 126.756,242.516 127.406 C 243.317 127.896,245.491 129.865,248.633 132.949 L 253.506 137.732 249.229 133.391 C 246.877 131.004,244.526 128.707,244.005 128.287 C 243.351 127.759,243.178 127.532,243.445 127.552 C 243.657 127.568,243.790 127.648,243.740 127.729 C 243.615 127.932,244.369 128.315,244.545 128.138 C 244.624 128.060,244.658 128.130,244.621 128.294 C 244.581 128.475,244.672 128.567,244.853 128.526 C 245.017 128.490,245.081 128.531,244.995 128.617 C 244.909 128.703,246.878 130.825,249.371 133.333 C 251.864 135.841,253.792 137.832,253.655 137.756 C 253.351 137.589,253.313 138.158,253.616 138.346 C 253.731 138.417,254.036 138.952,254.294 139.535 C 254.753 140.572,255.793 142.257,255.793 141.963 C 255.793 141.881,255.534 141.345,255.216 140.773 C 254.538 139.548,254.252 138.721,254.576 138.921 C 254.718 139.009,254.750 138.930,254.668 138.698 C 254.564 138.405,254.590 138.385,254.809 138.588 C 254.956 138.725,255.171 138.835,255.286 138.833 C 255.401 138.832,255.361 138.744,255.196 138.637 C 254.903 138.448,255.123 138.336,255.637 138.413 C 255.715 138.424,255.730 138.307,255.671 138.152 C 255.595 137.956,255.673 137.900,255.928 137.966 C 256.155 138.026,256.595 137.804,257.088 137.383 C 257.524 137.009,258.287 136.518,258.783 136.293 C 259.908 135.781,266.368 131.507,268.572 129.816 C 269.475 129.124,270.930 128.081,271.805 127.499 C 272.680 126.918,274.112 125.891,274.988 125.219 C 275.863 124.547,278.548 122.577,280.955 120.842 C 283.362 119.107,286.315 116.958,287.519 116.066 C 288.722 115.174,290.825 113.649,292.193 112.677 C 293.560 111.705,295.940 109.954,297.482 108.787 C 299.023 107.620,301.260 106.012,302.454 105.214 C 303.648 104.415,305.699 102.941,307.011 101.938 C 308.324 100.934,309.935 99.774,310.592 99.359 C 311.248 98.944,312.546 98.017,313.476 97.299 C 316.709 94.803,318.168 93.736,321.134 91.695 C 322.775 90.566,324.984 88.942,326.043 88.085 C 328.517 86.083,329.053 85.778,330.693 85.435 C 331.438 85.279,332.119 85.022,332.208 84.863 C 332.361 84.590,333.989 83.541,334.259 83.541 C 334.328 83.541,334.329 83.630,334.262 83.739 C 334.194 83.849,334.239 83.938,334.363 83.938 C 334.501 83.938,334.535 83.776,334.453 83.516 C 334.353 83.202,334.384 83.134,334.572 83.250 C 334.754 83.362,334.788 83.312,334.693 83.076 C 334.343 82.206,334.352 82.101,334.728 82.684 C 334.953 83.033,335.327 83.691,335.558 84.145 C 335.790 84.600,336.027 84.925,336.084 84.868 C 336.301 84.650,334.414 81.393,333.298 80.061 C 331.680 78.129,327.331 73.683,327.599 74.236 C 327.804 74.658,327.799 74.664,327.523 74.322 C 327.361 74.120,327.272 73.839,327.326 73.698 C 327.459 73.351,326.264 70.751,326.035 70.893 C 325.935 70.954,325.731 70.849,325.582 70.659 C 325.337 70.346,325.344 70.339,325.659 70.586 C 325.850 70.736,326.007 70.779,326.007 70.680 C 326.007 70.449,323.384 67.844,323.123 67.815 C 323.013 67.803,322.879 67.742,322.824 67.679 C 322.770 67.616,322.837 67.629,322.974 67.707 C 323.534 68.030,321.886 65.271,320.877 64.197 C 320.149 63.422,319.843 63.514,320.550 64.296 L 321.134 64.943 320.489 64.361 C 320.135 64.040,319.890 63.734,319.944 63.679 C 320.072 63.551,319.234 62.655,318.986 62.655 C 318.883 62.655,318.920 62.812,319.071 63.003 C 319.319 63.320,319.312 63.326,318.991 63.075 C 318.797 62.922,318.684 62.751,318.740 62.695 C 318.877 62.559,318.453 62.059,318.201 62.059 C 318.092 62.059,318.125 62.215,318.275 62.407 C 318.523 62.723,318.516 62.730,318.195 62.478 C 318.001 62.326,317.888 62.155,317.945 62.098 C 318.081 61.962,317.658 61.462,317.405 61.462 C 317.296 61.462,317.329 61.619,317.479 61.810 C 317.726 62.125,317.719 62.132,317.406 61.887 C 317.216 61.738,317.101 61.551,317.150 61.472 C 317.199 61.392,316.414 60.624,315.407 59.764 C 314.400 58.904,312.680 57.290,311.586 56.176 C 309.328 53.879,308.544 53.364,307.855 53.731 C 307.470 53.937,307.442 53.929,307.652 53.674 C 307.904 53.369,306.304 52.372,305.931 52.602 C 305.843 52.656,305.603 52.501,305.397 52.258 L 305.022 51.815 305.520 52.206 C 305.793 52.422,305.528 52.086,304.930 51.460 C 304.332 50.835,303.750 50.326,303.637 50.330 C 303.524 50.333,303.610 50.491,303.829 50.681 C 304.048 50.870,304.358 51.203,304.519 51.420 C 304.757 51.742,304.718 51.732,304.305 51.366 C 304.027 51.119,303.725 50.984,303.633 51.067 C 303.542 51.150,303.522 51.122,303.589 51.004 C 303.745 50.728,301.675 48.670,301.448 48.876 C 301.355 48.961,301.334 48.934,301.401 48.815 C 301.469 48.697,301.080 48.163,300.538 47.629 C 299.996 47.095,299.552 46.736,299.552 46.831 C 299.552 46.926,299.389 46.855,299.188 46.674 C 298.988 46.493,298.764 46.389,298.691 46.444 C 298.618 46.499,298.605 46.482,298.663 46.406 C 298.822 46.197,299.372 46.154,299.245 46.360 C 299.184 46.459,299.261 46.491,299.417 46.431 C 299.592 46.364,300.016 46.690,300.520 47.278 C 300.971 47.804,301.341 48.141,301.341 48.027 C 301.342 47.914,300.962 47.463,300.497 47.026 C 299.383 45.979,298.656 45.395,298.821 45.678 C 298.993 45.973,298.415 46.199,298.235 45.908 C 298.157 45.781,298.189 45.742,298.311 45.818 C 298.558 45.971,298.520 45.437,298.267 45.207 C 298.173 45.122,298.170 45.179,298.260 45.335 C 298.384 45.547,298.339 45.585,298.083 45.486 C 297.845 45.395,297.785 45.430,297.883 45.601 C 297.961 45.737,297.952 45.781,297.862 45.700 C 297.773 45.619,297.565 45.664,297.400 45.800 C 297.136 46.017,297.132 45.987,297.364 45.549 C 297.606 45.094,297.601 45.075,297.298 45.325 C 297.099 45.489,296.967 45.513,296.967 45.385 C 296.967 45.267,297.105 45.094,297.275 44.999 C 297.771 44.721,296.669 44.289,296.160 44.561 C 295.894 44.703,295.773 44.704,295.773 44.562 C 295.773 44.449,295.885 44.356,296.022 44.355 C 296.159 44.355,295.977 44.176,295.619 43.957 C 294.905 43.522,294.695 43.462,294.870 43.746 C 294.933 43.847,294.898 43.984,294.792 44.049 C 294.687 44.114,294.633 44.001,294.672 43.798 C 294.721 43.544,294.413 43.165,293.691 42.589 C 293.112 42.127,292.042 41.085,291.312 40.272 C 289.713 38.493,287.381 37.189,286.570 37.621 C 286.173 37.832,286.154 37.823,286.390 37.538 C 286.619 37.259,286.547 37.164,285.822 36.795 C 285.365 36.561,285.046 36.460,285.114 36.570 C 285.182 36.680,285.147 36.826,285.036 36.895 C 284.924 36.964,284.833 36.920,284.833 36.798 C 284.833 36.673,284.725 36.641,284.585 36.725 C 284.441 36.811,284.463 36.718,284.635 36.505 C 284.915 36.158,284.905 36.150,284.485 36.374 C 284.156 36.549,284.038 36.552,284.038 36.386 C 284.038 36.261,283.899 36.212,283.729 36.277 C 283.527 36.354,283.470 36.315,283.563 36.165 C 283.659 36.010,283.594 35.977,283.364 36.065 C 283.154 36.146,283.071 36.118,283.149 35.992 C 283.219 35.879,283.470 35.840,283.706 35.904 C 284.081 36.006,284.092 35.993,283.792 35.804 C 283.539 35.646,283.326 35.652,282.996 35.827 C 282.613 36.031,282.581 36.025,282.779 35.784 C 282.971 35.552,282.793 35.385,281.785 34.852 C 281.109 34.495,280.721 34.316,280.922 34.456 C 281.943 35.164,281.922 35.139,281.650 35.306 C 281.467 35.420,281.438 35.389,281.553 35.203 C 281.673 35.010,281.625 34.975,281.375 35.071 C 281.187 35.143,281.084 35.120,281.146 35.020 C 281.262 34.833,280.504 34.491,280.175 34.581 C 280.075 34.609,280.108 34.493,280.249 34.323 C 280.391 34.152,280.450 34.002,280.382 33.988 C 280.314 33.974,279.990 33.931,279.662 33.892 C 279.334 33.853,278.893 33.800,278.682 33.775 C 278.471 33.750,278.352 33.643,278.416 33.539 C 278.486 33.426,278.379 33.407,278.153 33.494 C 277.868 33.602,277.829 33.582,277.998 33.411 C 278.167 33.240,278.376 33.262,278.834 33.499 C 279.169 33.672,279.515 33.810,279.602 33.805 C 279.690 33.800,279.425 33.619,279.013 33.402 C 278.395 33.075,278.188 33.048,277.820 33.244 C 277.426 33.454,277.404 33.445,277.630 33.171 C 277.943 32.792,275.506 31.300,274.932 31.521 C 274.750 31.590,274.667 31.582,274.746 31.503 C 274.955 31.294,270.541 28.987,270.190 29.121 C 270.028 29.184,269.940 29.162,269.995 29.073 C 270.050 28.984,269.694 28.716,269.204 28.478 C 268.187 27.984,268.045 27.954,268.244 28.275 C 268.332 28.419,268.298 28.451,268.153 28.361 C 268.025 28.282,267.969 28.137,268.030 28.039 C 268.306 27.592,263.769 26.086,261.827 25.981 C 261.590 25.968,261.411 25.876,261.429 25.776 C 261.447 25.676,260.835 25.327,260.070 24.999 C 259.304 24.671,257.737 23.972,256.589 23.446 C 253.677 22.112,252.853 21.842,252.410 22.080 C 252.155 22.216,252.022 22.203,251.967 22.037 C 251.906 21.855,251.854 21.855,251.739 22.040 M255.604 23.178 C 255.927 23.345,256.191 23.526,256.191 23.581 C 256.191 23.670,255.020 23.131,254.815 22.948 C 254.614 22.768,255.068 22.900,255.604 23.178 M277.632 32.920 C 277.664 32.947,277.547 33.024,277.373 33.091 C 277.189 33.162,277.107 33.130,277.177 33.016 C 277.244 32.908,277.221 32.819,277.126 32.819 C 277.031 32.819,276.779 32.681,276.567 32.512 C 276.253 32.261,276.310 32.265,276.877 32.537 C 277.260 32.720,277.600 32.892,277.632 32.920 M286.000 37.073 C 286.404 37.296,286.424 37.352,286.139 37.461 C 285.917 37.546,285.854 37.512,285.950 37.358 C 286.046 37.203,285.981 37.171,285.751 37.259 C 285.563 37.331,285.459 37.309,285.520 37.210 C 285.582 37.111,285.519 36.985,285.382 36.930 C 285.244 36.874,285.221 36.825,285.331 36.820 C 285.440 36.816,285.741 36.929,286.000 37.073 M289.282 38.682 C 289.681 38.953,290.998 40.171,292.210 41.389 C 293.421 42.607,294.106 43.371,293.732 43.086 C 293.359 42.801,292.979 42.634,292.889 42.716 C 292.799 42.798,292.781 42.767,292.849 42.647 C 292.917 42.528,292.663 42.130,292.285 41.763 C 291.906 41.396,291.596 41.169,291.596 41.258 C 291.596 41.348,291.463 41.311,291.300 41.175 C 291.137 41.040,291.048 40.858,291.103 40.770 C 291.252 40.529,290.003 39.361,289.759 39.512 C 289.637 39.587,289.603 39.551,289.679 39.427 C 289.756 39.303,289.452 38.995,288.964 38.702 C 288.497 38.423,288.215 38.193,288.336 38.192 C 288.458 38.191,288.883 38.411,289.282 38.682 M296.888 44.707 C 297.036 44.806,296.980 44.982,296.713 45.251 C 296.319 45.649,296.319 45.648,296.566 45.171 C 296.784 44.751,296.774 44.709,296.482 44.821 C 296.287 44.896,296.200 44.867,296.272 44.752 C 296.415 44.519,296.587 44.507,296.888 44.707 M301.644 49.574 L 304.227 52.206 301.641 49.723 C 299.284 47.459,298.791 46.942,298.992 46.942 C 299.030 46.942,300.223 48.126,301.644 49.574 M302.348 49.222 C 302.934 49.819,303.457 50.265,303.510 50.212 C 303.634 50.087,301.716 48.135,301.469 48.135 C 301.366 48.135,301.762 48.624,302.348 49.222 M309.310 54.267 C 309.796 54.576,310.546 55.270,310.977 55.809 C 311.923 56.991,311.954 57.021,314.074 58.809 C 315.544 60.049,317.517 61.970,316.640 61.307 C 316.466 61.175,316.250 61.134,316.161 61.215 C 316.071 61.296,316.054 61.264,316.122 61.144 C 316.265 60.893,315.265 59.864,314.813 59.798 C 314.392 59.736,313.857 59.263,313.981 59.063 C 314.082 58.899,313.566 58.536,313.178 58.498 C 313.068 58.487,312.972 58.411,312.964 58.329 C 312.943 58.120,310.890 56.012,310.890 56.199 C 310.890 56.283,310.715 56.193,310.500 55.999 C 310.286 55.805,310.129 55.576,310.152 55.491 C 310.175 55.406,310.104 55.319,309.995 55.299 C 309.650 55.235,309.299 54.860,309.412 54.677 C 309.513 54.513,309.222 54.415,308.837 54.482 C 308.746 54.497,308.739 54.403,308.819 54.272 C 308.920 54.109,308.860 54.076,308.625 54.166 C 308.395 54.254,308.330 54.222,308.426 54.066 C 308.522 53.911,308.457 53.879,308.227 53.967 C 308.024 54.045,307.935 54.018,308.007 53.901 C 308.188 53.608,308.341 53.651,309.310 54.267 M326.604 72.030 C 326.604 72.112,326.500 72.243,326.374 72.321 C 326.233 72.408,326.198 72.376,326.284 72.238 C 326.360 72.114,326.325 71.809,326.204 71.561 C 325.994 71.128,325.998 71.125,326.294 71.495 C 326.464 71.707,326.604 71.948,326.604 72.030 M332.173 79.111 C 332.173 79.255,331.918 79.012,329.982 77.026 L 327.897 74.888 330.035 76.973 C 331.211 78.120,332.173 79.082,332.173 79.111 M190.306 113.119 C 190.553 113.167,190.911 113.165,191.101 113.115 C 191.291 113.065,191.089 113.027,190.651 113.029 C 190.214 113.031,190.058 113.072,190.306 113.119 M199.155 113.127 C 200.440 113.162,202.544 113.162,203.829 113.127 C 205.114 113.093,204.063 113.064,201.492 113.064 C 198.921 113.064,197.869 113.093,199.155 113.127 M221.780 114.968 C 221.780 115.077,221.680 115.144,221.556 115.117 C 221.433 115.090,221.287 115.191,221.232 115.343 C 221.165 115.529,221.216 115.568,221.387 115.462 C 221.566 115.351,221.594 115.383,221.480 115.567 C 221.361 115.760,221.409 115.796,221.658 115.700 C 221.888 115.612,221.953 115.644,221.857 115.799 C 221.761 115.955,221.826 115.987,222.056 115.899 C 222.286 115.811,222.351 115.843,222.255 115.998 C 222.159 116.154,222.224 116.186,222.454 116.098 C 222.682 116.010,222.749 116.042,222.655 116.195 C 222.559 116.350,222.651 116.387,222.943 116.310 C 223.218 116.239,223.325 116.274,223.241 116.410 C 223.157 116.546,223.265 116.581,223.540 116.509 C 223.776 116.448,223.919 116.478,223.857 116.577 C 223.667 116.885,223.276 116.783,221.785 116.037 C 220.802 115.545,220.427 115.265,220.605 115.155 C 220.749 115.066,220.931 115.034,221.011 115.083 C 221.091 115.133,221.212 115.082,221.281 114.971 C 221.442 114.711,221.780 114.709,221.780 114.968 M229.019 118.582 C 228.922 118.740,228.985 118.772,229.217 118.684 C 229.447 118.595,229.512 118.628,229.416 118.783 C 229.317 118.943,229.390 118.969,229.654 118.868 C 229.932 118.763,229.976 118.783,229.816 118.944 C 229.657 119.105,229.455 119.098,229.065 118.921 C 228.681 118.746,228.603 118.633,228.786 118.517 C 229.135 118.295,229.188 118.310,229.019 118.582 M237.494 123.647 C 237.494 123.983,239.335 125.625,240.217 126.075 C 240.810 126.378,241.008 126.412,241.008 126.212 C 241.008 126.065,240.907 125.984,240.785 126.031 C 240.457 126.157,238.775 124.985,238.088 124.151 C 237.761 123.755,237.494 123.528,237.494 123.647 M241.948 126.538 C 241.852 126.694,241.913 126.729,242.133 126.645 C 242.336 126.567,242.444 126.611,242.414 126.760 C 242.388 126.893,242.546 127.002,242.765 127.002 C 243.124 127.002,243.268 127.294,242.914 127.304 C 242.505 127.317,241.502 126.608,241.727 126.465 C 242.064 126.251,242.115 126.268,241.948 126.538 M361.016 136.892 C 361.015 136.972,361.193 137.330,361.411 137.688 C 361.630 138.046,361.808 138.250,361.808 138.140 C 361.808 138.031,361.630 137.673,361.412 137.345 C 361.195 137.016,361.016 136.813,361.016 136.892 M362.107 139.363 C 362.170 139.597,362.298 140.179,362.392 140.656 L 362.562 141.522 362.577 140.726 C 362.585 140.288,362.457 139.707,362.292 139.433 C 362.036 139.008,362.009 138.997,362.107 139.363 M265.344 165.208 C 265.345 165.418,265.438 165.724,265.549 165.888 C 265.696 166.106,265.715 166.025,265.617 165.589 C 265.453 164.858,265.340 164.699,265.344 165.208 M267.376 172.452 C 267.376 172.834,267.417 172.991,267.467 172.800 C 267.517 172.608,267.517 172.295,267.467 172.103 C 267.417 171.912,267.376 172.069,267.376 172.452 M366.442 175.733 C 366.443 176.280,366.482 176.481,366.528 176.178 C 366.573 175.876,366.572 175.428,366.525 175.184 C 366.478 174.939,366.440 175.186,366.442 175.733 M366.209 177.283 C 366.181 177.710,365.473 179.156,365.019 179.712 C 364.701 180.101,364.703 180.102,365.113 179.757 C 365.692 179.268,366.443 177.749,366.328 177.299 C 366.240 176.958,366.230 176.957,366.209 177.283 " stroke="none" fill="#fcab04" fill-rule="evenodd"></path></g></svg>