<svg id="svg" version="1.1" xmlns="http://www.w3.org/2000/svg" xmlns:xlink="http://www.w3.org/1999/xlink" width="400" height="400" viewBox="0, 0, 400,400"><g id="svgg"><path id="path0" d="M187.200 82.800 C 187.200 83.033,185.867 83.200,184.000 83.200 C 182.133 83.200,180.800 83.367,180.800 83.600 C 180.800 83.820,179.900 84.000,178.800 84.000 C 177.700 84.000,176.800 84.180,176.800 84.400 C 176.800 84.620,175.990 84.800,175.000 84.800 C 174.010 84.800,173.200 84.980,173.200 85.200 C 173.200 85.420,172.480 85.600,171.600 85.600 C 170.720 85.600,170.000 85.780,170.000 86.000 C 170.000 86.220,169.280 86.400,168.400 86.400 C 167.520 86.400,166.800 86.580,166.800 86.800 C 166.800 87.020,166.260 87.200,165.600 87.200 C 164.940 87.200,164.400 87.380,164.400 87.600 C 164.400 87.820,163.860 88.000,163.200 88.000 C 162.540 88.000,162.000 88.180,162.000 88.400 C 162.000 88.620,161.460 88.800,160.800 88.800 C 160.140 88.800,159.600 88.980,159.600 89.200 C 159.600 89.420,159.330 89.600,159.000 89.600 C 158.670 89.600,158.400 89.780,158.400 90.000 C 158.400 90.220,157.860 90.400,157.200 90.400 C 156.540 90.400,156.000 90.544,156.000 90.721 C 156.000 90.897,154.821 91.378,153.380 91.790 C 151.940 92.202,150.669 92.688,150.557 92.870 C 150.445 93.051,150.003 93.200,149.576 93.200 C 149.149 93.200,148.800 93.380,148.800 93.600 C 148.800 93.820,148.440 94.000,148.000 94.000 C 147.560 94.000,147.200 94.180,147.200 94.400 C 147.200 94.620,146.840 94.800,146.400 94.800 C 145.960 94.800,145.600 94.980,145.600 95.200 C 145.600 95.420,145.240 95.600,144.800 95.600 C 144.360 95.600,144.000 95.736,144.000 95.902 C 144.000 96.069,143.415 96.460,142.700 96.772 C 141.985 97.084,141.109 97.668,140.753 98.070 C 140.397 98.471,139.812 98.800,139.453 98.800 C 139.094 98.800,138.800 98.980,138.800 99.200 C 138.800 99.420,138.480 99.600,138.088 99.600 C 137.697 99.600,137.117 99.960,136.800 100.400 C 136.483 100.840,135.943 101.200,135.600 101.200 C 135.257 101.200,134.717 101.560,134.400 102.000 C 134.083 102.440,133.543 102.800,133.200 102.800 C 132.857 102.800,132.317 103.160,132.000 103.600 C 131.683 104.040,131.179 104.400,130.880 104.400 C 130.582 104.400,129.646 105.120,128.800 106.000 C 127.954 106.880,127.065 107.600,126.824 107.600 C 126.583 107.600,125.774 108.230,125.026 109.000 C 124.279 109.770,123.476 110.400,123.243 110.400 C 122.689 110.400,110.400 122.689,110.400 123.243 C 110.400 123.476,109.770 124.279,109.000 125.026 C 108.230 125.774,107.600 126.583,107.600 126.824 C 107.600 127.065,106.880 127.954,106.000 128.800 C 105.120 129.646,104.400 130.582,104.400 130.880 C 104.400 131.179,104.040 131.683,103.600 132.000 C 103.160 132.317,102.800 132.857,102.800 133.200 C 102.800 133.543,102.440 134.083,102.000 134.400 C 101.560 134.717,101.200 135.257,101.200 135.600 C 101.200 135.943,100.840 136.483,100.400 136.800 C 99.960 137.117,99.600 137.697,99.600 138.088 C 99.600 138.480,99.420 138.800,99.200 138.800 C 98.980 138.800,98.800 139.094,98.800 139.453 C 98.800 139.812,98.471 140.397,98.070 140.753 C 97.668 141.109,97.084 141.985,96.772 142.700 C 96.460 143.415,96.069 144.000,95.902 144.000 C 95.736 144.000,95.600 144.360,95.600 144.800 C 95.600 145.240,95.420 145.600,95.200 145.600 C 94.980 145.600,94.800 145.960,94.800 146.400 C 94.800 146.840,94.620 147.200,94.400 147.200 C 94.180 147.200,94.000 147.560,94.000 148.000 C 94.000 148.440,93.820 148.800,93.600 148.800 C 93.380 148.800,93.200 149.149,93.200 149.576 C 93.200 150.003,93.051 150.445,92.870 150.557 C 92.688 150.669,92.202 151.940,91.790 153.380 C 91.378 154.821,90.897 156.000,90.721 156.000 C 90.544 156.000,90.400 156.360,90.400 156.800 C 90.400 157.240,90.220 157.600,90.000 157.600 C 89.780 157.600,89.600 158.050,89.600 158.600 C 89.600 159.150,89.420 159.600,89.200 159.600 C 88.980 159.600,88.800 160.140,88.800 160.800 C 88.800 161.460,88.620 162.000,88.400 162.000 C 88.180 162.000,88.000 162.540,88.000 163.200 C 88.000 163.860,87.820 164.400,87.600 164.400 C 87.380 164.400,87.200 164.940,87.200 165.600 C 87.200 166.260,87.020 166.800,86.800 166.800 C 86.580 166.800,86.400 167.520,86.400 168.400 C 86.400 169.280,86.220 170.000,86.000 170.000 C 85.780 170.000,85.600 170.720,85.600 171.600 C 85.600 172.480,85.420 173.200,85.200 173.200 C 84.980 173.200,84.800 174.010,84.800 175.000 C 84.800 175.990,84.620 176.800,84.400 176.800 C 84.180 176.800,84.000 177.700,84.000 178.800 C 84.000 179.900,83.820 180.800,83.600 180.800 C 83.367 180.800,83.200 182.133,83.200 184.000 C 83.200 185.867,83.033 187.200,82.800 187.200 C 82.541 187.200,82.400 191.867,82.400 200.400 C 82.400 208.933,82.541 213.600,82.800 213.600 C 83.033 213.600,83.200 214.933,83.200 216.800 C 83.200 218.667,83.367 220.000,83.600 220.000 C 83.820 220.000,84.000 220.799,84.000 221.776 C 84.000 222.753,84.180 223.664,84.400 223.800 C 84.620 223.936,84.800 224.847,84.800 225.824 C 84.800 226.801,84.980 227.600,85.200 227.600 C 85.420 227.600,85.600 228.320,85.600 229.200 C 85.600 230.080,85.780 230.800,86.000 230.800 C 86.220 230.800,86.400 231.520,86.400 232.400 C 86.400 233.280,86.580 234.000,86.800 234.000 C 87.020 234.000,87.200 234.540,87.200 235.200 C 87.200 235.860,87.380 236.400,87.600 236.400 C 87.820 236.400,88.000 236.940,88.000 237.600 C 88.000 238.260,88.180 238.800,88.400 238.800 C 88.620 238.800,88.800 239.239,88.800 239.776 C 88.800 240.313,88.980 240.864,89.200 241.000 C 89.420 241.136,89.600 241.687,89.600 242.224 C 89.600 242.761,89.780 243.200,90.000 243.200 C 90.220 243.200,90.400 243.560,90.400 244.000 C 90.400 244.440,90.544 244.800,90.721 244.800 C 90.897 244.800,91.378 245.979,91.790 247.420 C 92.202 248.860,92.688 250.131,92.870 250.243 C 93.051 250.355,93.200 250.797,93.200 251.224 C 93.200 251.651,93.380 252.000,93.600 252.000 C 93.820 252.000,94.000 252.360,94.000 252.800 C 94.000 253.240,94.180 253.600,94.400 253.600 C 94.620 253.600,94.800 253.945,94.800 254.367 C 94.800 254.788,94.935 255.193,95.100 255.267 C 95.265 255.340,95.847 256.300,96.393 257.400 C 96.939 258.500,97.704 259.691,98.093 260.047 C 98.482 260.403,98.800 260.988,98.800 261.347 C 98.800 261.706,98.980 262.000,99.200 262.000 C 99.420 262.000,99.600 262.320,99.600 262.712 C 99.600 263.103,99.960 263.683,100.400 264.000 C 100.840 264.317,101.200 264.857,101.200 265.200 C 101.200 265.543,101.560 266.083,102.000 266.400 C 102.440 266.717,102.800 267.257,102.800 267.600 C 102.800 267.943,103.160 268.483,103.600 268.800 C 104.040 269.117,104.400 269.621,104.400 269.920 C 104.400 270.218,105.120 271.154,106.000 272.000 C 106.880 272.846,107.600 273.694,107.600 273.885 C 107.600 274.077,108.230 274.901,109.000 275.718 C 109.770 276.534,110.400 277.381,110.400 277.601 C 110.400 278.139,122.749 290.400,123.291 290.400 C 123.527 290.400,124.331 291.030,125.079 291.800 C 125.827 292.570,126.624 293.200,126.851 293.200 C 127.077 293.200,127.954 293.920,128.800 294.800 C 129.646 295.680,130.582 296.400,130.880 296.400 C 131.179 296.400,131.683 296.760,132.000 297.200 C 132.317 297.640,132.857 298.000,133.200 298.000 C 133.543 298.000,134.083 298.360,134.400 298.800 C 134.717 299.240,135.257 299.600,135.600 299.600 C 135.943 299.600,136.483 299.960,136.800 300.400 C 137.117 300.840,137.697 301.200,138.088 301.200 C 138.480 301.200,138.800 301.380,138.800 301.600 C 138.800 301.820,139.094 302.000,139.453 302.000 C 139.812 302.000,140.397 302.318,140.753 302.707 C 141.109 303.096,142.300 303.861,143.400 304.407 C 144.500 304.953,145.460 305.535,145.533 305.700 C 145.607 305.865,146.012 306.000,146.433 306.000 C 146.855 306.000,147.200 306.180,147.200 306.400 C 147.200 306.620,147.439 306.800,147.732 306.800 C 148.025 306.800,149.150 307.249,150.232 307.798 C 151.314 308.347,152.695 308.797,153.300 308.798 C 153.905 308.799,154.400 308.980,154.400 309.200 C 154.400 309.420,154.760 309.600,155.200 309.600 C 155.640 309.600,156.000 309.780,156.000 310.000 C 156.000 310.220,156.540 310.400,157.200 310.400 C 157.860 310.400,158.400 310.580,158.400 310.800 C 158.400 311.020,158.670 311.200,159.000 311.200 C 159.330 311.200,159.600 311.380,159.600 311.600 C 159.600 311.820,160.140 312.000,160.800 312.000 C 161.460 312.000,162.000 312.180,162.000 312.400 C 162.000 312.620,162.540 312.800,163.200 312.800 C 163.860 312.800,164.400 312.980,164.400 313.200 C 164.400 313.420,164.940 313.600,165.600 313.600 C 166.260 313.600,166.800 313.780,166.800 314.000 C 166.800 314.220,167.520 314.400,168.400 314.400 C 169.280 314.400,170.000 314.580,170.000 314.800 C 170.000 315.020,170.720 315.200,171.600 315.200 C 172.480 315.200,173.200 315.380,173.200 315.600 C 173.200 315.820,174.010 316.000,175.000 316.000 C 175.990 316.000,176.800 316.180,176.800 316.400 C 176.800 316.620,177.700 316.800,178.800 316.800 C 179.900 316.800,180.800 316.980,180.800 317.200 C 180.800 317.433,182.133 317.600,184.000 317.600 C 185.867 317.600,187.200 317.767,187.200 318.000 C 187.200 318.259,191.867 318.400,200.400 318.400 C 208.933 318.400,213.600 318.259,213.600 318.000 C 213.600 317.767,214.933 317.600,216.800 317.600 C 218.667 317.600,220.000 317.433,220.000 317.200 C 220.000 316.980,220.799 316.800,221.776 316.800 C 222.753 316.800,223.664 316.620,223.800 316.400 C 223.936 316.180,224.847 316.000,225.824 316.000 C 226.801 316.000,227.600 315.820,227.600 315.600 C 227.600 315.380,228.320 315.200,229.200 315.200 C 230.080 315.200,230.800 315.020,230.800 314.800 C 230.800 314.580,231.520 314.400,232.400 314.400 C 233.280 314.400,234.000 314.220,234.000 314.000 C 234.000 313.780,234.540 313.600,235.200 313.600 C 235.860 313.600,236.400 313.420,236.400 313.200 C 236.400 312.980,236.940 312.800,237.600 312.800 C 238.260 312.800,238.800 312.620,238.800 312.400 C 238.800 312.180,239.124 312.000,239.520 312.000 C 240.414 312.000,242.393 311.106,242.397 310.700 C 242.399 310.535,242.940 310.400,243.600 310.400 C 244.260 310.400,244.800 310.220,244.800 310.000 C 244.800 309.780,245.160 309.600,245.600 309.600 C 246.040 309.600,246.400 309.420,246.400 309.200 C 246.400 308.980,246.895 308.799,247.500 308.798 C 248.105 308.796,249.116 308.526,249.746 308.198 C 250.376 307.869,251.141 307.600,251.446 307.600 C 251.751 307.600,252.001 307.465,252.003 307.300 C 252.007 306.949,253.937 306.000,254.646 306.000 C 254.914 306.000,255.193 305.865,255.267 305.700 C 255.340 305.535,256.300 304.953,257.400 304.407 C 258.500 303.861,259.691 303.096,260.047 302.707 C 260.403 302.318,260.988 302.000,261.347 302.000 C 261.706 302.000,262.000 301.820,262.000 301.600 C 262.000 301.380,262.320 301.200,262.712 301.200 C 263.103 301.200,263.683 300.840,264.000 300.400 C 264.317 299.960,264.857 299.600,265.200 299.600 C 265.543 299.600,266.083 299.240,266.400 298.800 C 266.717 298.360,267.257 298.000,267.600 298.000 C 267.943 298.000,268.483 297.640,268.800 297.200 C 269.117 296.760,269.621 296.400,269.920 296.400 C 270.218 296.400,271.154 295.680,272.000 294.800 C 272.846 293.920,273.809 293.200,274.142 293.200 C 274.474 293.200,274.857 292.849,274.994 292.420 C 275.130 291.992,275.592 291.530,276.020 291.394 C 276.449 291.257,276.800 290.978,276.800 290.773 C 276.800 290.568,277.060 290.400,277.378 290.400 C 278.132 290.400,290.400 278.132,290.400 277.378 C 290.400 277.060,290.568 276.800,290.773 276.800 C 290.978 276.800,291.257 276.449,291.394 276.020 C 291.530 275.592,291.992 275.130,292.420 274.994 C 292.849 274.857,293.200 274.474,293.200 274.142 C 293.200 273.809,293.920 272.846,294.800 272.000 C 295.680 271.154,296.400 270.218,296.400 269.920 C 296.400 269.621,296.760 269.117,297.200 268.800 C 297.640 268.483,298.000 267.943,298.000 267.600 C 298.000 267.257,298.360 266.717,298.800 266.400 C 299.240 266.083,299.600 265.543,299.600 265.200 C 299.600 264.857,299.960 264.317,300.400 264.000 C 300.840 263.683,301.200 263.103,301.200 262.712 C 301.200 262.320,301.380 262.000,301.600 262.000 C 301.820 262.000,302.000 261.706,302.000 261.347 C 302.000 260.988,302.318 260.403,302.707 260.047 C 303.096 259.691,303.861 258.500,304.407 257.400 C 304.953 256.300,305.535 255.340,305.700 255.267 C 305.865 255.193,306.000 254.914,306.000 254.646 C 306.000 253.937,306.949 252.007,307.300 252.003 C 307.465 252.001,307.600 251.751,307.600 251.446 C 307.600 251.141,307.869 250.376,308.198 249.746 C 308.526 249.116,308.796 248.105,308.798 247.500 C 308.799 246.895,308.980 246.400,309.200 246.400 C 309.420 246.400,309.600 246.040,309.600 245.600 C 309.600 245.160,309.780 244.800,310.000 244.800 C 310.220 244.800,310.400 244.260,310.400 243.600 C 310.400 242.940,310.535 242.399,310.700 242.397 C 311.106 242.393,312.000 240.414,312.000 239.520 C 312.000 239.124,312.180 238.800,312.400 238.800 C 312.620 238.800,312.800 238.260,312.800 237.600 C 312.800 236.940,312.980 236.400,313.200 236.400 C 313.420 236.400,313.600 235.860,313.600 235.200 C 313.600 234.540,313.780 234.000,314.000 234.000 C 314.220 234.000,314.400 233.280,314.400 232.400 C 314.400 231.520,314.580 230.800,314.800 230.800 C 315.020 230.800,315.200 230.080,315.200 229.200 C 315.200 228.320,315.380 227.600,315.600 227.600 C 315.820 227.600,316.000 226.801,316.000 225.824 C 316.000 224.847,316.180 223.936,316.400 223.800 C 316.620 223.664,316.800 222.753,316.800 221.776 C 316.800 220.799,316.980 220.000,317.200 220.000 C 317.433 220.000,317.600 218.667,317.600 216.800 C 317.600 214.933,317.767 213.600,318.000 213.600 C 318.259 213.600,318.400 208.933,318.400 200.400 C 318.400 191.867,318.259 187.200,318.000 187.200 C 317.767 187.200,317.600 185.867,317.600 184.000 C 317.600 182.133,317.433 180.800,317.200 180.800 C 316.980 180.800,316.800 179.900,316.800 178.800 C 316.800 177.700,316.620 176.800,316.400 176.800 C 316.180 176.800,316.000 175.990,316.000 175.000 C 316.000 174.010,315.820 173.200,315.600 173.200 C 315.380 173.200,315.200 172.480,315.200 171.600 C 315.200 170.720,315.020 170.000,314.800 170.000 C 314.580 170.000,314.400 169.280,314.400 168.400 C 314.400 167.520,314.220 166.800,314.000 166.800 C 313.780 166.800,313.600 166.260,313.600 165.600 C 313.600 164.940,313.420 164.400,313.200 164.400 C 312.980 164.400,312.800 163.860,312.800 163.200 C 312.800 162.540,312.620 162.000,312.400 162.000 C 312.180 162.000,312.000 161.460,312.000 160.800 C 312.000 160.140,311.820 159.600,311.600 159.600 C 311.380 159.600,311.200 159.330,311.200 159.000 C 311.200 158.670,311.020 158.400,310.800 158.400 C 310.580 158.400,310.400 157.860,310.400 157.200 C 310.400 156.540,310.220 156.000,310.000 156.000 C 309.780 156.000,309.600 155.640,309.600 155.200 C 309.600 154.760,309.420 154.400,309.200 154.400 C 308.980 154.400,308.799 153.905,308.798 153.300 C 308.797 152.695,308.347 151.314,307.798 150.232 C 307.249 149.150,306.800 148.025,306.800 147.732 C 306.800 147.439,306.620 147.200,306.400 147.200 C 306.180 147.200,306.000 146.855,306.000 146.433 C 306.000 146.012,305.865 145.607,305.700 145.533 C 305.535 145.460,304.953 144.500,304.407 143.400 C 303.861 142.300,303.096 141.109,302.707 140.753 C 302.318 140.397,302.000 139.812,302.000 139.453 C 302.000 139.094,301.820 138.800,301.600 138.800 C 301.380 138.800,301.200 138.480,301.200 138.088 C 301.200 137.697,300.840 137.117,300.400 136.800 C 299.960 136.483,299.600 135.943,299.600 135.600 C 299.600 135.257,299.240 134.717,298.800 134.400 C 298.360 134.083,298.000 133.543,298.000 133.200 C 298.000 132.857,297.640 132.317,297.200 132.000 C 296.760 131.683,296.400 131.179,296.400 130.880 C 296.400 130.582,295.680 129.646,294.800 128.800 C 293.920 127.954,293.200 127.077,293.200 126.851 C 293.200 126.624,292.570 125.827,291.800 125.079 C 291.030 124.331,290.400 123.527,290.400 123.291 C 290.400 122.749,278.139 110.400,277.601 110.400 C 277.381 110.400,276.534 109.770,275.718 109.000 C 274.901 108.230,274.077 107.600,273.885 107.600 C 273.694 107.600,272.846 106.880,272.000 106.000 C 271.154 105.120,270.218 104.400,269.920 104.400 C 269.621 104.400,269.117 104.040,268.800 103.600 C 268.483 103.160,267.943 102.800,267.600 102.800 C 267.257 102.800,266.717 102.440,266.400 102.000 C 266.083 101.560,265.543 101.200,265.200 101.200 C 264.857 101.200,264.317 100.840,264.000 100.400 C 263.683 99.960,263.103 99.600,262.712 99.600 C 262.320 99.600,262.000 99.420,262.000 99.200 C 262.000 98.980,261.706 98.800,261.347 98.800 C 260.988 98.800,260.403 98.482,260.047 98.093 C 259.691 97.704,258.500 96.939,257.400 96.393 C 256.300 95.847,255.340 95.265,255.267 95.100 C 255.193 94.935,254.788 94.800,254.367 94.800 C 253.945 94.800,253.600 94.620,253.600 94.400 C 253.600 94.180,253.240 94.000,252.800 94.000 C 252.360 94.000,252.000 93.820,252.000 93.600 C 252.000 93.380,251.651 93.200,251.224 93.200 C 250.797 93.200,250.355 93.051,250.243 92.870 C 250.131 92.688,248.860 92.202,247.420 91.790 C 245.979 91.378,244.800 90.897,244.800 90.721 C 244.800 90.544,244.260 90.400,243.600 90.400 C 242.940 90.400,242.399 90.265,242.397 90.100 C 242.393 89.694,240.414 88.800,239.520 88.800 C 239.124 88.800,238.800 88.620,238.800 88.400 C 238.800 88.180,238.260 88.000,237.600 88.000 C 236.940 88.000,236.400 87.820,236.400 87.600 C 236.400 87.380,235.860 87.200,235.200 87.200 C 234.540 87.200,234.000 87.020,234.000 86.800 C 234.000 86.580,233.280 86.400,232.400 86.400 C 231.520 86.400,230.800 86.220,230.800 86.000 C 230.800 85.780,230.080 85.600,229.200 85.600 C 228.320 85.600,227.600 85.420,227.600 85.200 C 227.600 84.980,226.801 84.800,225.824 84.800 C 224.847 84.800,223.936 84.620,223.800 84.400 C 223.664 84.180,222.753 84.000,221.776 84.000 C 220.799 84.000,220.000 83.820,220.000 83.600 C 220.000 83.367,218.667 83.200,216.800 83.200 C 214.933 83.200,213.600 83.033,213.600 82.800 C 213.600 82.541,208.933 82.400,200.400 82.400 C 191.867 82.400,187.200 82.541,187.200 82.800 M207.377 94.021 C 217.647 94.790,230.520 97.528,237.500 100.426 C 239.036 101.064,240.146 101.500,241.600 102.034 C 266.221 111.088,288.999 134.849,300.427 163.400 C 301.441 165.934,303.678 173.369,304.157 175.800 C 304.287 176.460,304.582 177.900,304.814 179.000 C 308.798 197.922,307.012 221.630,300.413 237.400 C 300.229 237.840,299.668 239.280,299.167 240.600 C 289.755 265.408,265.461 289.701,240.600 299.164 C 239.280 299.667,237.840 300.229,237.400 300.413 C 221.630 307.012,197.922 308.798,179.000 304.814 C 177.900 304.582,176.460 304.287,175.800 304.157 C 173.369 303.678,165.934 301.441,163.400 300.427 C 134.347 288.798,111.412 266.586,101.626 240.600 C 101.129 239.280,100.571 237.840,100.387 237.400 C 91.866 217.035,91.860 184.668,100.373 163.400 C 100.549 162.960,100.874 162.150,101.094 161.600 C 112.626 132.857,133.507 112.338,163.400 100.373 C 175.385 95.576,193.398 92.974,207.377 94.021 M239.761 125.999 C 222.085 128.591,214.967 149.850,227.559 162.441 C 239.144 174.026,257.928 169.164,263.160 153.225 C 264.846 148.089,265.456 149.084,252.982 136.614 C 246.922 130.556,241.927 125.622,241.882 125.650 C 241.837 125.677,240.882 125.834,239.761 125.999 M156.783 127.677 C 156.535 128.222,155.799 128.983,155.148 129.367 C 154.496 129.752,153.570 130.668,153.088 131.403 C 152.606 132.137,151.723 133.027,151.125 133.380 C 150.528 133.734,149.634 134.602,149.139 135.311 C 148.645 136.020,147.998 136.749,147.702 136.930 C 147.087 137.307,137.763 146.647,136.700 147.951 C 134.222 150.989,138.804 160.918,144.689 165.266 C 163.628 179.257,187.777 156.884,175.595 136.633 C 171.626 130.036,158.546 123.809,156.783 127.677 M193.400 179.226 C 191.640 179.401,189.030 179.743,187.600 179.985 C 186.170 180.228,183.470 180.678,181.600 180.987 C 178.635 181.476,174.991 182.442,170.000 184.060 C 167.198 184.968,154.281 191.296,153.000 192.388 C 152.560 192.763,150.670 194.127,148.800 195.420 C 145.974 197.375,139.772 202.867,137.758 205.200 C 126.941 217.728,121.064 230.259,119.184 244.800 C 118.670 248.780,118.782 259.317,119.345 259.877 C 119.691 260.222,280.446 260.086,280.794 259.741 C 281.244 259.293,281.252 247.202,280.805 244.000 C 279.408 234.007,275.611 223.644,270.545 215.998 C 269.915 215.048,269.065 213.717,268.654 213.039 C 266.155 208.911,257.909 200.263,253.000 196.624 C 245.975 191.415,244.216 190.404,233.800 185.586 C 229.851 183.759,222.704 181.627,217.900 180.841 C 211.270 179.758,209.962 179.576,206.058 179.200 C 201.405 178.751,198.091 178.758,193.400 179.226 " stroke="none" fill="#040404" fill-rule="evenodd"></path><path id="path1" d="M192.400 94.063 C 183.004 94.849,170.285 97.617,163.400 100.373 C 133.507 112.338,112.626 132.857,101.094 161.600 C 100.874 162.150,100.549 162.960,100.373 163.400 C 91.860 184.668,91.866 217.035,100.387 237.400 C 100.571 237.840,101.129 239.280,101.626 240.600 C 111.412 266.586,134.347 288.798,163.400 300.427 C 165.934 301.441,173.369 303.678,175.800 304.157 C 176.460 304.287,177.900 304.582,179.000 304.814 C 197.922 308.798,221.630 307.012,237.400 300.413 C 237.840 300.229,239.280 299.667,240.600 299.164 C 265.461 289.701,289.755 265.408,299.167 240.600 C 299.668 239.280,300.229 237.840,300.413 237.400 C 307.012 221.630,308.798 197.922,304.814 179.000 C 304.582 177.900,304.287 176.460,304.157 175.800 C 303.678 173.369,301.441 165.934,300.427 163.400 C 288.999 134.849,266.221 111.088,241.600 102.034 C 240.146 101.500,239.036 101.064,237.500 100.426 C 225.860 95.592,206.596 92.874,192.400 94.063 M252.982 136.614 C 265.456 149.084,264.846 148.089,263.160 153.225 C 257.928 169.164,239.144 174.026,227.559 162.441 C 214.967 149.850,222.085 128.591,239.761 125.999 C 240.882 125.834,241.837 125.677,241.882 125.650 C 241.927 125.622,246.922 130.556,252.982 136.614 M166.566 128.761 C 191.591 140.874,174.138 178.938,148.716 167.693 C 140.863 164.219,133.414 151.980,136.700 147.951 C 137.763 146.647,147.087 137.307,147.702 136.930 C 147.998 136.749,148.645 136.020,149.139 135.311 C 149.634 134.602,150.528 133.734,151.125 133.380 C 151.723 133.027,152.606 132.137,153.088 131.403 C 153.570 130.668,154.496 129.752,155.148 129.367 C 155.799 128.983,156.535 128.222,156.783 127.677 C 157.510 126.083,162.079 126.589,166.566 128.761 M206.058 179.200 C 209.962 179.576,211.270 179.758,217.900 180.841 C 222.704 181.627,229.851 183.759,233.800 185.586 C 244.216 190.404,245.975 191.415,253.000 196.624 C 257.909 200.263,266.155 208.911,268.654 213.039 C 269.065 213.717,269.915 215.048,270.545 215.998 C 275.611 223.644,279.408 234.007,280.805 244.000 C 281.252 247.202,281.244 259.293,280.794 259.741 C 280.446 260.086,119.691 260.222,119.345 259.877 C 118.782 259.317,118.670 248.780,119.184 244.800 C 121.064 230.259,126.941 217.728,137.758 205.200 C 139.772 202.867,145.974 197.375,148.800 195.420 C 150.670 194.127,152.560 192.763,153.000 192.388 C 154.281 191.296,167.198 184.968,170.000 184.060 C 174.991 182.442,178.635 181.476,181.600 180.987 C 183.470 180.678,186.170 180.228,187.600 179.985 C 194.258 178.858,199.987 178.614,206.058 179.200 " stroke="none" fill="#f40404" fill-rule="evenodd"></path></g></svg>