<svg id="svg" xmlns="http://www.w3.org/2000/svg" xmlns:xlink="http://www.w3.org/1999/xlink" width="400" height="400" viewBox="0, 0, 400,400"><g id="svgg"><path id="path0" d="M130.367 80.453 C 92.399 112.986,48.638 150.322,33.122 163.423 C 2.110 189.607,-1.716 194.746,1.819 205.458 C 5.646 217.054,9.902 218.667,36.684 218.667 L 60.444 218.667 60.444 292.622 L 60.444 366.578 66.489 372.622 L 72.533 378.667 109.649 378.667 C 162.185 378.667,160.000 381.210,160.000 320.057 L 160.000 279.111 200.000 279.111 L 240.000 279.111 240.000 320.057 C 240.000 381.182,237.848 378.667,290.145 378.667 L 327.055 378.667 332.861 373.481 L 338.667 368.294 339.167 293.481 L 339.668 218.667 363.216 218.667 C 389.655 218.667,393.123 217.463,397.609 206.726 C 402.288 195.526,399.302 191.272,368.346 165.043 C 353.000 152.040,309.610 114.936,271.924 82.589 C 234.238 50.242,202.503 23.220,201.402 22.540 C 200.236 21.818,170.627 45.958,130.367 80.453 " stroke="none" fill="#000000" fill-rule="evenodd"></path></g></svg>