<svg id="svg" xmlns="http://www.w3.org/2000/svg" xmlns:xlink="http://www.w3.org/1999/xlink" width="400" height="311.1111111111111" viewBox="0, 0, 400,311.1111111111111"><g id="svgg"><path id="path0" d="M158.170 81.046 L 126.797 106.881 94.863 107.035 C 55.449 107.226,57.516 104.468,57.516 156.863 C 57.516 209.281,55.446 206.524,94.863 206.587 L 126.797 206.638 159.209 231.821 C 203.564 266.284,199.846 273.001,200.687 156.886 C 201.554 37.057,204.723 42.709,158.170 81.046 M229.899 120.572 C 227.281 125.464,228.492 127.687,240.265 139.608 C 256.515 156.062,256.508 154.584,240.411 171.605 C 217.275 196.067,231.392 206.224,255.473 182.442 L 269.281 168.806 283.089 182.442 C 307.170 206.224,321.287 196.067,298.151 171.605 C 282.054 154.584,282.047 156.062,298.297 139.608 C 310.070 127.687,311.281 125.464,308.663 120.572 C 304.065 111.981,298.062 113.881,283.089 128.669 L 269.281 142.305 255.473 128.669 C 240.500 113.881,234.497 111.981,229.899 120.572 " stroke="none" fill="#000000" fill-rule="evenodd"></path></g></svg>