<svg id="svg" xmlns="http://www.w3.org/2000/svg" xmlns:xlink="http://www.w3.org/1999/xlink" width="400" height="311.1111111111111" viewBox="0, 0, 400,311.1111111111111"><g id="svgg"><path id="path0" d="M159.896 78.382 L 127.635 104.575 96.684 104.575 C 55.329 104.575,57.516 101.729,57.516 155.556 C 57.516 209.408,55.299 206.536,96.884 206.536 L 128.035 206.536 157.481 229.111 C 173.677 241.528,188.250 252.725,189.865 253.993 C 191.480 255.262,194.729 255.560,197.085 254.656 C 203.320 252.263,202.331 54.104,196.078 52.927 C 193.922 52.521,177.639 63.975,159.896 78.382 M284.096 64.488 C 279.967 68.617,283.219 74.711,296.253 87.265 C 338.019 127.494,337.748 192.789,295.644 233.889 C 280.141 249.022,278.620 258.824,291.776 258.824 C 307.251 258.824,339.660 204.626,343.614 172.134 C 349.038 127.566,303.457 45.127,284.096 64.488 M252.476 98.492 C 251.282 101.603,254.506 106.109,263.649 114.108 C 293.293 140.040,293.380 179.432,263.852 206.721 C 244.701 224.420,251.112 235.419,272.220 221.076 C 301.561 201.139,310.660 154.021,291.487 121.305 C 279.251 100.426,256.777 87.283,252.476 98.492 M224.864 126.764 C 221.073 131.333,223.129 138.562,228.220 138.562 C 245.906 138.562,249.373 170.370,232.720 179.847 C 221.849 186.032,221.700 196.078,232.479 196.078 C 248.481 196.078,264.189 170.343,259.074 152.508 C 252.863 130.852,233.540 116.310,224.864 126.764 " stroke="none" fill="#000000" fill-rule="evenodd"></path></g></svg>